<svg width="52" height="32" viewBox="0 0 52 32" fill="none" xmlns="http://www.w3.org/2000/svg">
    <rect width="52" height="32" rx="2" fill="white"/>
    <g clip-path="url(#clip0_3530_19780)">
        <mask id="mask0_3530_19780" style="mask-type:luminance" maskUnits="userSpaceOnUse" x="10" y="10" width="31" height="12">
            <path d="M40.9675 10H10V22H40.9675V10Z" fill="white"/>
        </mask>
        <g mask="url(#mask0_3530_19780)">
            <path fill-rule="evenodd" clip-rule="evenodd" d="M12.0306 20.9663C11.6477 20.9663 11.4526 20.7832 11.4526 20.4821C11.4526 19.9207 12.0971 19.7319 13.2728 19.6105C13.2728 20.3586 12.7518 20.9663 12.027 20.9663H12.0306ZM12.5365 16.7593C11.6961 16.7593 10.7299 17.1432 10.2053 17.5495L10.6844 18.5319C11.105 18.1579 11.785 17.8379 12.3984 17.8379C12.9816 17.8379 13.3039 18.0274 13.3039 18.4091C13.3039 18.6653 13.0907 18.7951 12.6875 18.8463C11.1801 19.0358 9.99866 19.44 9.99866 20.5677C9.99866 21.4617 10.6541 22.0028 11.678 22.0028C12.4093 22.0028 13.0596 21.6084 13.3689 21.0905V21.8624H14.7318V18.6281C14.7318 17.2947 13.7786 16.7565 12.5372 16.7565L12.5365 16.7593Z" fill="black"/>
            <path fill-rule="evenodd" clip-rule="evenodd" d="M26.2147 16.9046V21.8561H27.673V19.4702C27.673 18.3368 28.3797 18.0035 28.8718 18.0035C29.0933 18.0018 29.3103 18.0641 29.4954 18.1825L29.762 16.8737C29.5554 16.7934 29.3342 16.7545 29.1117 16.7593C28.3623 16.7593 27.8912 17.0814 27.5805 17.7368V16.9046H26.2147Z" fill="black"/>
            <path fill-rule="evenodd" clip-rule="evenodd" d="M36.5199 16.7593C35.7488 16.7593 35.1722 17.2014 34.8723 17.6281C34.5941 17.0772 34.0052 16.7593 33.297 16.7593C32.5267 16.7593 31.9927 17.1747 31.7463 17.6533V16.9045H30.3401V21.8561H31.7998V19.3067C31.7998 18.3944 32.2933 17.953 32.7536 17.953C33.1706 17.953 33.5535 18.2147 33.5535 18.8905V21.8561H35.0103V19.3067C35.0103 18.381 35.4916 17.953 35.9736 17.953C36.3594 17.953 36.7684 18.2253 36.7684 18.8807V21.8561H38.2252V18.433C38.2252 17.3207 37.4542 16.7593 36.5227 16.7593" fill="black"/>
            <path fill-rule="evenodd" clip-rule="evenodd" d="M22.666 16.9046H21.3451V16.4014C21.3451 15.746 21.7302 15.5593 22.0619 15.5593C22.2884 15.5622 22.511 15.6163 22.7123 15.7172L23.1617 14.7186C23.1617 14.7186 22.7058 14.4295 21.8769 14.4295C20.9455 14.4295 19.8854 14.9397 19.8854 16.5404V16.9046H17.6778V16.4014C17.6778 15.746 18.0623 15.5593 18.3947 15.5593C18.6215 15.5593 18.8449 15.6135 19.045 15.7172L19.4945 14.7186C19.2264 14.5663 18.795 14.4295 18.2104 14.4295C17.279 14.4295 16.2189 14.9397 16.2189 16.5404V16.9046H15.3749V17.9965H16.2211V21.8562H17.6778V17.9965H19.8883V21.8562H21.3451V17.9965H22.666V16.9046Z" fill="black"/>
            <path d="M24.9913 16.9046H23.536V21.8541H24.9913V16.9046Z" fill="black"/>
            <path fill-rule="evenodd" clip-rule="evenodd" d="M23.5895 16.0632H25.0152C25.8469 13.5235 28.6687 11.2912 32.0245 11.2912C36.1058 11.2912 39.6329 14.3088 39.6329 19.0063C39.6453 19.9705 39.5089 20.9312 39.2282 21.8561H40.612L40.6257 21.8098C40.8589 20.8941 40.974 19.9538 40.9683 19.0105C40.9683 13.7719 37.0373 10.0014 32.0274 10.0014C28.0921 10.0014 24.5845 12.654 23.5902 16.0646L23.5895 16.0632Z" fill="#4A4AF4"/>
        </g>
    </g>
    <defs>
        <clipPath id="clip0_3530_19780">
            <rect width="31" height="12" fill="white" transform="translate(10 10)"/>
        </clipPath>
    </defs>
</svg>
