<svg width="52" height="32" viewBox="0 0 52 32" fill="none" xmlns="http://www.w3.org/2000/svg">
    <rect width="52" height="32" rx="2" fill="white"/>
    <path d="M4 8.66667C4 6.08934 6.08934 4 8.66667 4H43.3333C45.9107 4 48 6.08934 48 8.66667V23.3333C48 25.9107 45.9107 28 43.3333 28H8.66667C6.08934 28 4 25.9107 4 23.3333V8.66667Z" fill="#B2FCE4"/>
    <path d="M45.5431 13.7446L44.3352 13.0494L43.1272 12.3201C42.9417 12.2143 42.7317 12.1591 42.5181 12.16C42.3046 12.1609 42.0951 12.2178 41.9104 12.3251C41.7258 12.4324 41.5726 12.5863 41.4662 12.7714C41.3597 12.9565 41.3038 13.1664 41.3039 13.3799V13.528C41.3038 13.5707 41.3142 13.6127 41.334 13.6504C41.3539 13.6881 41.3826 13.7205 41.4178 13.7446L41.9876 14.0636C42.0143 14.0795 42.044 14.0898 42.0748 14.0938C42.1056 14.0978 42.1369 14.0955 42.1668 14.087C42.1967 14.0784 42.2245 14.0639 42.2486 14.0442C42.2726 14.0245 42.2924 14.0001 42.3067 13.9725C42.3169 13.9352 42.3169 13.8958 42.3067 13.8585V13.4938C42.3052 13.4624 42.3098 13.431 42.3205 13.4014C42.3311 13.3717 42.3475 13.3445 42.3686 13.3212C42.3898 13.2979 42.4154 13.279 42.4438 13.2656C42.4723 13.2522 42.5032 13.2446 42.5346 13.2431H42.6714L43.8109 13.8927L44.9505 14.5309C45.0059 14.5661 45.0453 14.6216 45.0602 14.6855C45.0752 14.7494 45.0644 14.8167 45.0303 14.8727L44.9505 14.9525L43.8109 15.5907L42.6714 16.2403C42.6445 16.2569 42.6145 16.268 42.5833 16.273C42.5521 16.2779 42.5202 16.2767 42.4895 16.2693C42.4588 16.2618 42.4298 16.2484 42.4043 16.2297C42.3788 16.2111 42.3572 16.1875 42.3409 16.1605C42.3293 16.1156 42.3293 16.0686 42.3409 16.0237V15.8414C42.341 15.6279 42.285 15.4181 42.1785 15.2329C42.0721 15.0478 41.9189 14.8939 41.7343 14.7866C41.5497 14.6793 41.3401 14.6224 41.1266 14.6215C40.9131 14.6206 40.703 14.6758 40.5175 14.7816L39.2868 15.4881L38.0788 16.1833C37.7999 16.3455 37.5959 16.6108 37.5106 16.9219C37.4253 17.2331 37.4657 17.5654 37.623 17.8471C37.7279 18.0397 37.8862 18.198 38.0788 18.3029L39.2868 18.9981L40.5175 19.6932C40.703 19.799 40.9131 19.8542 41.1266 19.8533C41.3401 19.8524 41.5497 19.7955 41.7343 19.6882C41.9189 19.5809 42.0721 19.4269 42.1785 19.2418C42.285 19.0567 42.341 18.8469 42.3409 18.6334V18.4852C42.3409 18.4426 42.3306 18.4006 42.3107 18.3629C42.2909 18.3251 42.2621 18.2928 42.2269 18.2687L41.6571 17.9382C41.6304 17.9223 41.6007 17.9121 41.5699 17.9081C41.5391 17.904 41.5078 17.9064 41.4779 17.9149C41.448 17.9235 41.4202 17.938 41.3961 17.9577C41.3721 17.9774 41.3523 18.0018 41.338 18.0294C41.3279 18.0706 41.3279 18.1136 41.338 18.1548V18.5194C41.3396 18.5509 41.3349 18.5823 41.3243 18.6119C41.3136 18.6415 41.2973 18.6688 41.2761 18.6921C41.2549 18.7154 41.2294 18.7342 41.2009 18.7476C41.1724 18.761 41.1416 18.7687 41.1101 18.7701C41.0651 18.7804 41.0184 18.7804 40.9734 18.7701L39.8338 18.1206L38.6942 17.4824C38.6367 17.4551 38.5917 17.4069 38.5684 17.3476C38.5452 17.2884 38.5453 17.2225 38.5688 17.1633L38.6486 17.0836L39.7882 16.4454L40.9278 15.7958C40.9547 15.7792 40.9846 15.7681 41.0158 15.7631C41.047 15.7581 41.0789 15.7594 41.1097 15.7668C41.1404 15.7742 41.1693 15.7877 41.1948 15.8063C41.2203 15.825 41.2419 15.8485 41.2583 15.8756C41.2698 15.9204 41.2698 15.9675 41.2583 16.0123V16.1947C41.2582 16.4082 41.3141 16.618 41.4206 16.8031C41.5271 16.9882 41.6803 17.1421 41.8649 17.2494C42.0495 17.3567 42.259 17.4137 42.4726 17.4146C42.6861 17.4155 42.8961 17.3603 43.0816 17.2545L44.3124 16.5479L45.5203 15.8528C45.6566 15.769 45.7748 15.6589 45.8682 15.529C45.9615 15.3992 46.0282 15.252 46.0642 15.0962C46.1003 14.9403 46.105 14.7789 46.0781 14.6212C46.0513 14.4635 45.9934 14.3127 45.9078 14.1776C45.8246 14.0049 45.6992 13.8559 45.5431 13.7446Z" fill="black"/>
    <path d="M37.5889 13.9496L34.7513 19.8071H33.6117L34.6716 17.6191L33.0078 13.9496H34.2157L35.2869 16.3998L36.4265 13.9496H37.5889Z" fill="black"/>
    <path d="M9.22448 16.0237C9.21333 15.8011 9.13714 15.5866 9.00534 15.4069C8.87354 15.2271 8.69192 15.09 8.48295 15.0124C8.27399 14.9348 8.04686 14.9202 7.82968 14.9704C7.6125 15.0206 7.41482 15.1334 7.26109 15.2948C7.10737 15.4562 7.00435 15.6592 6.9648 15.8785C6.92525 16.0979 6.9509 16.324 7.03858 16.529C7.12626 16.7339 7.27211 16.9086 7.45808 17.0315C7.64406 17.1544 7.86198 17.22 8.08489 17.2203C8.38712 17.2203 8.67698 17.1002 8.8907 16.8865C9.10441 16.6728 9.22448 16.383 9.22448 16.0807V16.0237ZM9.22448 18.1092V17.5622C9.06367 17.7565 8.86159 17.9125 8.63293 18.019C8.40427 18.1254 8.15477 18.1796 7.90255 18.1776C7.63465 18.1716 7.37054 18.113 7.12532 18.005C6.88009 17.897 6.65855 17.7417 6.47335 17.548C6.28815 17.3543 6.14292 17.1261 6.04596 16.8763C5.949 16.6265 5.90222 16.36 5.90827 16.0921V16.0237C5.89759 15.7513 5.94072 15.4795 6.0352 15.2237C6.12968 14.968 6.27365 14.7334 6.45887 14.5334C6.6441 14.3333 6.86694 14.1718 7.11466 14.0579C7.36238 13.9441 7.63012 13.8802 7.90255 13.8699C8.15028 13.8683 8.3953 13.9216 8.61994 14.026C8.84459 14.1305 9.04327 14.2834 9.20168 14.4739V13.9497H10.2159V18.1092H9.22448Z" fill="black"/>
    <path d="M15.2301 17.1633C14.8654 17.1633 14.7743 17.0266 14.7743 16.6847V14.8841H15.4238V13.9839H14.7743V12.9354H13.7258V13.9497H12.3583V13.528C12.3583 13.1862 12.4951 13.0494 12.8597 13.0494H13.0877V12.2403H12.5976C11.7316 12.2403 11.3213 12.5252 11.3213 13.3799V13.9383H10.7401V14.8841H11.3213V18.1434H12.3583V14.8841H13.7258V16.924C13.7258 17.7787 14.0449 18.1434 14.8654 18.1434H15.4352V17.1633H15.2301Z" fill="black"/>
    <path d="M18.9907 15.6477C18.9568 15.401 18.8313 15.1762 18.6391 15.0178C18.447 14.8595 18.2023 14.7792 17.9537 14.793C17.7044 14.7815 17.4596 14.8624 17.2662 15.02C17.0728 15.1777 16.9443 15.4012 16.9053 15.6477H18.9907ZM16.9167 16.2973C16.9343 16.5663 17.056 16.8179 17.256 16.9987C17.4559 17.1795 17.7185 17.2754 17.9879 17.2659C18.1835 17.2683 18.3764 17.2202 18.548 17.1264C18.7197 17.0326 18.8643 16.8962 18.968 16.7303H20.0392C19.9067 17.1697 19.6299 17.5515 19.2535 17.8142C18.8771 18.0768 18.4232 18.2048 17.9651 18.1776C17.4226 18.2152 16.8874 18.0358 16.4772 17.6789C16.0669 17.3221 15.8151 16.8169 15.7771 16.2745V16.0238C15.7771 15.4525 16.004 14.9047 16.4079 14.5008C16.8119 14.0969 17.3597 13.8699 17.9309 13.8699C18.5022 13.8699 19.05 14.0969 19.4539 14.5008C19.8578 14.9047 20.0847 15.4525 20.0847 16.0238C20.0961 16.1108 20.0961 16.1989 20.0847 16.2859L16.9167 16.2973Z" fill="black"/>
    <path d="M26.7856 16.0238C26.7781 15.7241 26.6528 15.4394 26.4369 15.2315C26.221 15.0235 25.9319 14.909 25.6321 14.9127C25.3324 14.9165 25.0462 15.0382 24.8355 15.2515C24.6249 15.4648 24.5068 15.7525 24.5068 16.0522C24.5068 16.352 24.6249 16.6397 24.8355 16.853C25.0462 17.0663 25.3324 17.188 25.6321 17.1917C25.9319 17.1955 26.221 17.081 26.4369 16.873C26.6528 16.6651 26.7781 16.3804 26.7856 16.0807V16.0238ZM23.4922 19.8072V13.9497H24.5064V14.4853C24.6672 14.291 24.8693 14.1349 25.098 14.0285C25.3266 13.922 25.5761 13.8679 25.8283 13.8699C26.0962 13.8744 26.3606 13.9316 26.6064 14.0382C26.8522 14.1449 27.0746 14.2989 27.2608 14.4915C27.4471 14.6841 27.5936 14.9115 27.6919 15.1607C27.7903 15.4099 27.8386 15.6761 27.834 15.944V16.0238C27.8447 16.2962 27.8016 16.568 27.7071 16.8238C27.6126 17.0795 27.4686 17.3141 27.2834 17.5141C27.0982 17.7142 26.8753 17.8757 26.6276 17.9896C26.3799 18.1034 26.1122 18.1673 25.8397 18.1776C25.601 18.1822 25.3641 18.1346 25.1456 18.0381C24.9271 17.9417 24.7323 17.7987 24.5748 17.6192V19.8072H23.4922Z" fill="black"/>
    <path d="M31.5262 16.0237C31.5149 15.8036 31.44 15.5915 31.3105 15.4131C31.1811 15.2347 31.0027 15.0976 30.797 15.0185C30.5913 14.9394 30.367 14.9217 30.1514 14.9675C29.9358 15.0132 29.7381 15.1205 29.5823 15.2764C29.4264 15.4323 29.3191 15.63 29.2733 15.8456C29.2276 16.0612 29.2453 16.2854 29.3244 16.4911C29.4035 16.6969 29.5405 16.8753 29.719 17.0047C29.8974 17.1341 30.1095 17.209 30.3296 17.2203H30.3866C30.6888 17.2203 30.9787 17.1002 31.1924 16.8865C31.4061 16.6728 31.5262 16.3829 31.5262 16.0807V16.0237ZM31.5262 18.1092V17.5622C31.3682 17.7569 31.1683 17.9133 30.9414 18.0199C30.7144 18.1265 30.4663 18.1803 30.2156 18.1776C29.9478 18.1731 29.6834 18.1159 29.4376 18.0093C29.1918 17.9026 28.9694 17.7486 28.7832 17.556C28.5969 17.3634 28.4504 17.136 28.3521 16.8868C28.2537 16.6375 28.2054 16.3714 28.21 16.1035V16.0237C28.1993 15.7513 28.2424 15.4795 28.3369 15.2237C28.4314 14.968 28.5753 14.7334 28.7606 14.5334C28.9458 14.3333 29.1686 14.1718 29.4164 14.0579C29.6641 13.9441 29.9318 13.8802 30.2042 13.8699C30.4503 13.8683 30.6936 13.9218 30.9164 14.0263C31.1392 14.1307 31.3359 14.2837 31.492 14.4739V13.9497H32.5176V18.1092H31.5262Z" fill="black"/>
    <path d="M21.646 14.3599C21.7407 14.2073 21.8735 14.0818 22.0314 13.9959C22.1892 13.91 22.3666 13.8666 22.5463 13.8699C22.6994 13.8659 22.8515 13.8971 22.9907 13.9611V15.0323C22.7686 14.8954 22.5107 14.828 22.25 14.8386C22.0707 14.8771 21.9125 14.9817 21.8069 15.1317C21.7013 15.2816 21.656 15.4659 21.6802 15.6477V18.1092H20.6204V13.9497H21.646V14.3599Z" fill="black"/>
</svg>
