<svg width="52" height="32" viewBox="0 0 52 32" fill="none" xmlns="http://www.w3.org/2000/svg">
    <rect width="52" height="32" rx="2" fill="white"/>
    <rect x="7.25" y="7" width="37.5" height="19" fill="white"/>
    <path d="M41.618 25.376L39.954 23.52L38.226 25.376H34.834H27.538V16.736H24.146L28.37 7.072H32.466L33.938 10.4V7.072H39.058L39.954 9.568L40.85 7.072H44.754V5.6C44.754 4.704 44.05 4 43.154 4H8.85C7.954 4 7.25 4.704 7.25 5.6V26.4C7.25 27.296 7.954 28 8.85 28H43.154C44.05 28 44.754 27.296 44.754 26.4V25.376H41.618Z" fill="#0071CE"/>
    <path d="M42.0661 24.352H44.7541L41.2341 20.576L44.7541 16.864H42.1301L39.8901 19.296L37.7141 16.864H35.0261L38.6101 20.64L35.0261 24.352H37.6501L39.8901 21.92L42.0661 24.352Z" fill="#0071CE"/>
    <path d="M30.738 22.624V21.472H34.962V19.744H30.738V18.592H35.026V16.864H28.69V24.352H35.026V22.624H30.738Z" fill="#0071CE"/>
    <path d="M42.7701 15.776H44.6901V8.224L41.6181 8.288L39.9541 12.96L38.2261 8.288H35.0261V15.776H37.0741V10.528L38.9941 15.776H40.7861L42.7701 10.528V15.776Z" fill="#0071CE"/>
    <path d="M31.7621 8.28802H29.1381L25.8101 15.776H28.0501L28.6901 14.304H32.1461L32.7861 15.776H35.0901L31.7621 8.28802ZM29.3941 12.576L30.4181 10.144L31.4421 12.576H29.3941Z" fill="#0071CE"/>
    <path d="M42.898 20.384L44.754 22.432V18.336L42.898 20.384Z" fill="#0071CE"/>
</svg>
