<svg width="52" height="32" viewBox="0 0 52 32" fill="none" xmlns="http://www.w3.org/2000/svg">
    <rect width="52" height="32" rx="2" fill="white"/>
    <path d="M6.75622 1.33331H45.2439C45.6212 1.33331 45.9831 1.48322 46.25 1.75005C46.5168 2.01689 46.6667 2.37879 46.6667 2.75615V28.3673C46.6667 28.7447 46.5168 29.1066 46.25 29.3734C45.9831 29.6403 45.6212 29.7902 45.2439 29.7902H6.75622C6.37885 29.7902 6.01695 29.6403 5.75011 29.3734C5.48328 29.1066 5.33337 28.7447 5.33337 28.3673V2.75616C5.33337 2.37879 5.48328 2.01689 5.75011 1.75005C6.01695 1.48322 6.37885 1.33331 6.75622 1.33331Z" fill="white"/>
    <path d="M9.01379 26.0257V21.1184H10.528C11.6287 21.1184 12.3367 21.532 12.3367 22.3873C12.3367 22.871 12.1124 23.2075 11.7969 23.4038C12.2526 23.6141 12.519 24.0207 12.519 24.5745C12.519 25.563 11.7969 26.0257 10.6752 26.0257L9.01379 26.0257ZM9.98823 23.1584H10.7103C11.1519 23.1584 11.3412 22.9411 11.3412 22.5415C11.3412 22.1139 10.9977 21.9737 10.535 21.9737H9.98823V23.1584ZM9.98823 25.1704H10.5911C11.18 25.1704 11.5235 25.0232 11.5235 24.5605C11.5235 24.1048 11.2291 23.9155 10.6752 23.9155H9.98823V25.1704ZM14.4087 26.1098C13.4482 26.1098 12.9645 25.6401 12.9645 25.0092C12.9645 24.3151 13.5324 23.9085 14.3736 23.9015C14.5826 23.9053 14.7911 23.9241 14.9975 23.9576V23.7893C14.9975 23.3617 14.7522 23.1584 14.2825 23.1584C13.9661 23.1544 13.6519 23.2116 13.3571 23.3267L13.1818 22.5696C13.4833 22.4434 13.967 22.3592 14.3946 22.3592C15.4252 22.3592 15.9369 22.9061 15.9369 23.8524V25.8013C15.6495 25.9485 15.1097 26.1098 14.4087 26.1098ZM14.9975 25.3176V24.5675C14.8341 24.5312 14.6672 24.5123 14.4998 24.5114C14.1773 24.5114 13.9249 24.6376 13.9249 24.9671C13.9249 25.2615 14.1352 25.4158 14.5068 25.4158C14.6757 25.4213 14.8437 25.3877 14.9975 25.3176ZM16.618 26.0257V22.6677C17.1218 22.4653 17.6595 22.3607 18.2024 22.3592C19.2259 22.3592 19.8147 22.864 19.8147 23.7963V26.0257H18.8473V23.8665C18.8473 23.3827 18.623 23.1584 18.1953 23.1584C17.983 23.1554 17.7725 23.1985 17.5784 23.2846V26.0257L16.618 26.0257ZM23.1956 22.5696L23.0133 23.3337C22.7629 23.2252 22.4939 23.1657 22.2211 23.1584C21.6533 23.1584 21.3448 23.558 21.3448 24.217C21.3448 24.939 21.6673 25.3106 22.2702 25.3106C22.5393 25.3032 22.804 25.2412 23.0483 25.1283L23.2026 25.9065C22.8851 26.0477 22.5404 26.1172 22.1931 26.1098C21.0294 26.1098 20.3564 25.3877 20.3564 24.245C20.3564 23.1093 21.0223 22.3592 22.137 22.3592C22.5004 22.3574 22.8604 22.429 23.1956 22.5696H23.1956ZM25.2855 26.1098C24.2059 26.1098 23.5329 25.3597 23.5329 24.231C23.5329 23.1093 24.2059 22.3592 25.2855 22.3592C26.3721 22.3592 27.0311 23.1093 27.0311 24.231C27.0311 25.3597 26.3721 26.1098 25.2855 26.1098H25.2855ZM25.2855 25.3106C25.7833 25.3106 26.0426 24.897 26.0426 24.231C26.0426 23.572 25.7833 23.1584 25.2855 23.1584C24.7948 23.1584 24.5214 23.572 24.5214 24.231C24.5214 24.897 24.7948 25.3106 25.2855 25.3106H25.2855ZM27.5909 26.0257V22.6677C28.0947 22.4653 28.6324 22.3607 29.1753 22.3592C30.1988 22.3592 30.7876 22.864 30.7876 23.7963V26.0257H29.8202V23.8665C29.8202 23.3827 29.5959 23.1584 29.1682 23.1584C28.9559 23.1554 28.7454 23.1985 28.5513 23.2846V26.0257L27.5909 26.0257ZM32.9694 26.1098C32.1352 26.1098 31.7076 25.6541 31.7076 24.7287V23.2145H31.2309V22.4434H31.7076V21.6652L32.675 21.6161V22.4434H33.4531V23.2145H32.675V24.7147C32.675 25.1213 32.8432 25.3106 33.1587 25.3106C33.2837 25.3103 33.4083 25.2962 33.5302 25.2685L33.5793 26.0467C33.3791 26.091 33.1745 26.1122 32.9694 26.1098H32.9694ZM35.4113 26.1098C34.4509 26.1098 33.9671 25.6401 33.9671 25.0092C33.9671 24.3151 34.535 23.9085 35.3762 23.9015C35.5853 23.9053 35.7938 23.9241 36.0001 23.9576V23.7893C36.0001 23.3617 35.7548 23.1584 35.2851 23.1584C34.9687 23.1544 34.6545 23.2116 34.3597 23.3267L34.1845 22.5696C34.4859 22.4434 34.9696 22.3592 35.3973 22.3592C36.4278 22.3592 36.9395 22.9061 36.9395 23.8524V25.8013C36.6521 25.9485 36.1123 26.1098 35.4113 26.1098H35.4113ZM36.0001 25.3176V24.5675C35.8367 24.5312 35.6698 24.5123 35.5024 24.5114C35.1799 24.5114 34.9276 24.6376 34.9276 24.9671C34.9276 25.2615 35.1379 25.4158 35.5094 25.4158C35.6784 25.4213 35.8463 25.3877 36.0001 25.3176H36.0001ZM40.2494 22.5696L40.0672 23.3337C39.8167 23.2252 39.5478 23.1657 39.275 23.1584C38.7072 23.1584 38.3987 23.558 38.3987 24.217C38.3987 24.939 38.7212 25.3106 39.3241 25.3106C39.5931 25.3032 39.8579 25.2412 40.1022 25.1283L40.2565 25.9065C39.939 26.0477 39.5943 26.1172 39.247 26.1098C38.0832 26.1098 37.4102 25.3877 37.4102 24.245C37.4102 23.1093 38.0762 22.3592 39.1909 22.3592C39.5543 22.3574 39.9143 22.429 40.2494 22.5696H40.2494ZM42.3764 26.1098C41.5422 26.1098 41.1146 25.6541 41.1146 24.7287V23.2145H40.6379V22.4434H41.1146V21.6652L42.082 21.6161V22.4434H42.8602V23.2145H42.082V24.7147C42.082 25.1213 42.2503 25.3106 42.5657 25.3106C42.6907 25.3103 42.8153 25.2962 42.9373 25.2685L42.9863 26.0467C42.7861 26.091 42.5815 26.1122 42.3764 26.1098H42.3764Z" fill="#1E3764"/>
    <path d="M15.7618 18.6648C20.8809 18.6648 23.4405 15.252 26.0001 11.8392H9.01379V18.6648H15.7618Z" fill="url(#paint0_linear_3530_19791)"/>
    <path d="M36.2387 5.01373C31.1196 5.01373 28.56 8.4265 26.0005 11.8393H42.9867V5.01373H36.2387Z" fill="url(#paint1_linear_3530_19791)"/>
    <defs>
        <linearGradient id="paint0_linear_3530_19791" x1="12.4496" y1="15.5671" x2="24.8758" y2="10.9517" gradientUnits="userSpaceOnUse">
            <stop stop-color="#005AB9"/>
            <stop offset="1" stop-color="#1E3764"/>
        </linearGradient>
        <linearGradient id="paint1_linear_3530_19791" x1="27.029" y1="12.4313" x2="40.223" y2="7.92978" gradientUnits="userSpaceOnUse">
            <stop stop-color="#FBA900"/>
            <stop offset="1" stop-color="#FFD800"/>
        </linearGradient>
    </defs>
</svg>
