<svg width="52" height="32" viewBox="0 0 52 32" fill="none" xmlns="http://www.w3.org/2000/svg">
    <rect width="52" height="32" rx="2" fill="white"/>
    <path d="M43.4688 27.7589H8.51471C7.71565 27.7589 7.06781 27.111 7.06781 26.312V5.68804C7.06781 4.88897 7.71565 4.24115 8.51471 4.24115H43.4688C44.2678 4.24115 44.9157 4.88897 44.9157 5.68804V26.312C44.9157 27.111 44.2678 27.7589 43.4688 27.7589Z" fill="white"/>
    <path d="M13.2746 21.289C13.2746 21.7484 13.603 21.8016 13.8948 21.8016C15.1827 21.8016 15.605 20.8304 15.605 19.942C15.605 18.8279 14.8901 18.0232 13.7397 18.0232C13.4953 18.0232 13.3826 18.0403 13.2746 18.0468V21.289ZM12.691 18.4933C12.691 17.9573 12.4105 17.9925 12.1429 17.9865V17.8325C12.3749 17.8432 12.6133 17.8432 12.846 17.8432C13.0962 17.8432 13.4362 17.8325 13.8773 17.8325C15.4205 17.8325 16.2611 18.8628 16.2611 19.9185C16.2611 20.5085 15.9159 21.9925 13.8057 21.9925C13.5025 21.9925 13.2213 21.9812 12.9416 21.9812C12.6732 21.9812 12.4105 21.9872 12.1429 21.9925V21.8371C12.4996 21.8016 12.6732 21.7898 12.691 21.3846V18.4933Z" fill="#211D1D"/>
    <path d="M17.1083 18.3509C16.9526 18.3509 16.8156 18.2076 16.8156 18.053C16.8156 17.9036 16.9586 17.7661 17.1083 17.7661C17.2625 17.7661 17.4005 17.8916 17.4005 18.053C17.4005 18.2137 17.2691 18.3509 17.1083 18.3509ZM16.47 21.8373H16.5833C16.7501 21.8373 16.8692 21.8373 16.8692 21.64V20.0255C16.8692 19.7633 16.7803 19.7272 16.5591 19.6089V19.5134C16.8395 19.4293 17.1731 19.317 17.1973 19.2982C17.239 19.2749 17.2743 19.2689 17.3046 19.2689C17.3342 19.2689 17.3459 19.3042 17.3459 19.3519V21.64C17.3459 21.8373 17.4778 21.8373 17.644 21.8373H17.7455V21.9927C17.5427 21.9927 17.3342 21.9809 17.1197 21.9809C16.9051 21.9809 16.6905 21.987 16.47 21.9927V21.8373Z" fill="#211D1D"/>
    <path d="M18.3118 20.0609C18.3118 19.8411 18.2462 19.7812 17.9665 19.6685V19.5545C18.2223 19.4711 18.4665 19.3931 18.753 19.2688C18.7708 19.2688 18.7883 19.2806 18.7883 19.3275V19.716C19.1286 19.4711 19.4208 19.2688 19.8203 19.2688C20.3267 19.2688 20.5056 19.6379 20.5056 20.103V21.6401C20.5056 21.8375 20.6371 21.8375 20.8035 21.8375H20.9108V21.9925C20.7016 21.9925 20.4932 21.981 20.2794 21.981C20.0645 21.981 19.8498 21.9872 19.6353 21.9925V21.8375H19.7426C19.9097 21.8375 20.0281 21.8375 20.0281 21.6401V20.0973C20.0281 19.7569 19.8203 19.5905 19.48 19.5905C19.2893 19.5905 18.9857 19.7451 18.7883 19.8766V21.6401C18.7883 21.8375 18.9205 21.8375 19.0872 21.8375H19.1945V21.9925C18.9857 21.9925 18.7765 21.981 18.5616 21.981C18.3478 21.981 18.1329 21.9872 17.9184 21.9925V21.8375H18.0263C18.1927 21.8375 18.3118 21.8375 18.3118 21.6401V20.0609Z" fill="#211D1D"/>
    <path d="M22.4195 20.1565C22.5677 20.1565 22.5851 20.0793 22.5851 20.0079C22.5851 19.7032 22.4006 19.4592 22.067 19.4592C21.7038 19.4592 21.4534 19.7271 21.3818 20.1565H22.4195ZM21.3643 20.3479C21.3517 20.4014 21.3517 20.4905 21.3643 20.6932C21.3992 21.2599 21.7633 21.7246 22.2399 21.7246C22.5677 21.7246 22.825 21.5453 23.0449 21.3251L23.1283 21.4085C22.8539 21.7719 22.5147 22.0817 22.0261 22.0817C21.0777 22.0817 20.8874 21.164 20.8874 20.7827C20.8874 19.6145 21.6739 19.2688 22.0905 19.2688C22.5738 19.2688 23.093 19.5725 23.0983 20.204C23.0983 20.2406 23.0983 20.2759 23.093 20.3119L23.0385 20.3479H21.3643Z" fill="#211D1D"/>
    <path d="M23.2354 21.8374H23.3968C23.5635 21.8374 23.6819 21.8374 23.6819 21.64V19.9657C23.6819 19.7815 23.4619 19.7454 23.3725 19.6973V19.6089C23.8073 19.4236 24.0465 19.2689 24.1002 19.2689C24.1355 19.2689 24.1534 19.2861 24.1534 19.3463V19.8823H24.1662C24.3145 19.6503 24.565 19.2689 24.9284 19.2689C25.0774 19.2689 25.2677 19.3695 25.2677 19.5843C25.2677 19.7454 25.1555 19.8891 24.988 19.8891C24.8027 19.8891 24.8027 19.7454 24.5946 19.7454C24.4933 19.7454 24.1594 19.8823 24.1594 20.2408V21.64C24.1594 21.8374 24.2785 21.8374 24.4452 21.8374H24.7792V21.9927C24.4513 21.9871 24.2015 21.9809 23.9452 21.9809C23.7004 21.9809 23.4503 21.9871 23.2354 21.9927V21.8374Z" fill="#211D1D"/>
    <path d="M25.5299 21.1642C25.6079 21.5572 25.8463 21.8915 26.2815 21.8915C26.6328 21.8915 26.7633 21.6766 26.7633 21.4681C26.7633 20.765 25.465 20.9906 25.465 20.0315C25.465 19.6973 25.7334 19.2689 26.3891 19.2689C26.5794 19.2689 26.8357 19.3224 27.068 19.4415L27.1101 20.0493H26.9732C26.9138 19.6741 26.7045 19.4589 26.3232 19.4589C26.0845 19.4589 25.8585 19.5964 25.8585 19.8527C25.8585 20.5504 27.2408 20.3356 27.2408 21.2714C27.2408 21.6644 26.9251 22.0818 26.2163 22.0818C25.9768 22.0818 25.6971 21.9988 25.4886 21.8797L25.423 21.1941L25.5299 21.1642Z" fill="#211D1D"/>
    <path d="M32.623 18.9108H32.474C32.3611 18.2137 31.8661 17.9335 31.1993 17.9335C30.5129 17.9335 29.5172 18.3922 29.5172 19.822C29.5172 21.0269 30.3772 21.8915 31.2942 21.8915C31.8842 21.8915 32.3732 21.4863 32.4926 20.8601L32.6291 20.8954L32.4926 21.766C32.242 21.9214 31.5679 22.0818 31.1743 22.0818C29.7798 22.0818 28.8986 21.1819 28.8986 19.8409C28.8986 18.6189 29.9887 17.7426 31.1573 17.7426C31.6402 17.7426 32.1045 17.8976 32.5634 18.0582L32.623 18.9108Z" fill="#211D1D"/>
    <path d="M32.8375 21.8374H32.9512C33.1183 21.8374 33.2377 21.8374 33.2377 21.64V18.3218C33.2377 17.9336 33.1483 17.9215 32.9215 17.8563V17.7607C33.1597 17.6831 33.4102 17.5766 33.5356 17.5042C33.6009 17.4686 33.649 17.4383 33.6665 17.4383C33.7028 17.4383 33.7142 17.4742 33.7142 17.5223V21.64C33.7142 21.8374 33.8457 21.8374 34.0125 21.8374H34.1137V21.9927C33.912 21.9927 33.7028 21.9809 33.4875 21.9809C33.2737 21.9809 33.0592 21.9871 32.8375 21.9927V21.8374Z" fill="#211D1D"/>
    <path d="M36.6652 21.6643C36.6652 21.7723 36.73 21.7777 36.832 21.7777C36.903 21.7777 36.9932 21.7723 37.0708 21.7723V21.8978C36.8134 21.9213 36.3252 22.0463 36.2112 22.082L36.1819 22.0642V21.582C35.825 21.8739 35.5498 22.082 35.126 22.082C34.8046 22.082 34.4714 21.8739 34.4714 21.3735V19.8473C34.4714 19.6918 34.4471 19.5424 34.1143 19.5133V19.4C34.3292 19.3935 34.8046 19.3586 34.8826 19.3586C34.9489 19.3586 34.9489 19.4 34.9489 19.5311V21.0684C34.9489 21.247 34.9489 21.7599 35.4671 21.7599C35.6691 21.7599 35.9375 21.6045 36.1877 21.3974V19.7926C36.1877 19.6739 35.9018 19.6087 35.6877 19.5486V19.4413C36.224 19.4053 36.5583 19.3586 36.6175 19.3586C36.6652 19.3586 36.6652 19.4 36.6652 19.4658V21.6643Z" fill="#211D1D"/>
    <path d="M37.8508 21.3189C37.8508 21.5456 38.0653 21.9269 38.4652 21.9269C39.1034 21.9269 39.3715 21.3007 39.3715 20.77C39.3715 20.1268 38.8826 19.5905 38.4179 19.5905C38.1962 19.5905 38.0119 19.7337 37.8508 19.8714V21.3189ZM37.8508 19.6974C38.0893 19.4953 38.4117 19.269 38.7393 19.269C39.4307 19.269 39.848 19.8714 39.848 20.5202C39.848 21.3007 39.276 22.0819 38.4227 22.0819C37.9816 22.0819 37.7499 21.939 37.5945 21.8738L37.4161 22.0103L37.2913 21.945C37.3437 21.5937 37.374 21.2473 37.374 20.8842V18.3217C37.374 17.9336 37.2848 17.9212 37.0582 17.856V17.7605C37.2974 17.6832 37.5468 17.5766 37.6723 17.5038C37.7375 17.4687 37.7852 17.4383 37.8038 17.4383C37.8393 17.4383 37.8508 17.4743 37.8508 17.5224V19.6974Z" fill="#211D1D"/>
    <path d="M12.1362 25.4579H12.1814C12.298 25.4579 12.4216 25.4426 12.4216 25.2732V23.5744C12.4216 23.4051 12.298 23.3898 12.1814 23.3898H12.1362V23.291C12.2631 23.291 12.4572 23.3046 12.6165 23.3046C12.7787 23.3046 12.973 23.291 13.1251 23.291V23.3898H13.0798C12.9633 23.3898 12.8397 23.4051 12.8397 23.5744V25.2732C12.8397 25.4426 12.9633 25.4579 13.0798 25.4579H13.1251V25.5558C12.9697 25.5558 12.7748 25.543 12.613 25.543C12.4537 25.543 12.2631 25.5558 12.1362 25.5558V25.4579Z" fill="#211D1D"/>
    <path d="M13.1112 25.5418L13.1116 25.4727H13.0802C12.9644 25.4727 12.8261 25.4523 12.8255 25.2731V23.5743C12.8261 23.395 12.9644 23.3751 13.0802 23.3751H13.1112V23.3062C12.9617 23.3062 12.7738 23.3188 12.6166 23.3188C12.4626 23.3188 12.2759 23.3066 12.1504 23.3062V23.3751H12.1814C12.297 23.3751 12.4353 23.395 12.4353 23.5743V25.2731C12.4353 25.4523 12.297 25.4727 12.1814 25.4727H12.1504V25.5418C12.2759 25.54 12.4595 25.5286 12.6131 25.5286C12.7709 25.5286 12.9588 25.5408 13.1112 25.5418ZM13.1252 25.5696C12.9687 25.5696 12.7741 25.5568 12.6131 25.5568C12.4541 25.5568 12.2635 25.5696 12.1362 25.5696H12.122V25.5557V25.4584V25.4445H12.1362H12.1814C12.2991 25.4417 12.4064 25.432 12.4071 25.2731V23.5743C12.4064 23.4156 12.2991 23.4049 12.1814 23.4028H12.122V23.3896V23.2781H12.1362C12.2635 23.2781 12.4578 23.2905 12.6166 23.2905C12.778 23.2905 12.9719 23.2781 13.1252 23.2781H13.1395V23.2924V23.4028H13.1252H13.0802C12.9623 23.4049 12.8544 23.4156 12.854 23.5743V25.2731C12.8544 25.432 12.9623 25.4417 13.0802 25.4445H13.1395V25.4584V25.5696H13.1252Z" fill="#211D1D"/>
    <path d="M15.3535 24.9167L15.36 24.9103V23.694C15.36 23.4281 15.1751 23.3896 15.0773 23.3896H15.0065V23.2913C15.1586 23.2913 15.3083 23.3045 15.4605 23.3045C15.5931 23.3045 15.7267 23.2913 15.859 23.2913V23.3896H15.8112C15.6743 23.3896 15.5215 23.415 15.5215 23.8008V25.277C15.5215 25.3903 15.5254 25.5037 15.5414 25.6042H15.4181L13.7478 23.7428V25.0784C13.7478 25.3615 13.8027 25.4576 14.0525 25.4576H14.1074V25.5557C13.9683 25.5557 13.8287 25.5429 13.689 25.5429C13.5439 25.5429 13.3942 25.5557 13.2485 25.5557V25.4576H13.2937C13.5176 25.4576 13.586 25.3063 13.586 25.0464V23.6808C13.586 23.499 13.4359 23.3896 13.2905 23.3896H13.2485V23.2913C13.3711 23.2913 13.4979 23.3045 13.6209 23.3045C13.7185 23.3045 13.813 23.2913 13.9099 23.2913L15.3535 24.9167Z" fill="#211D1D"/>
    <path d="M15.3459 24.9102V24.909L15.343 24.9069L15.3459 24.9102ZM15.4178 25.5901H15.5255C15.5109 25.4928 15.5084 25.3844 15.5084 25.2772V23.8007C15.5084 23.4115 15.6712 23.3752 15.811 23.3752H15.8451V23.306C15.7172 23.3068 15.5893 23.319 15.4605 23.319C15.312 23.319 15.1673 23.3068 15.0205 23.306V23.3752H15.0771C15.1773 23.3752 15.3736 23.4194 15.3736 23.6942L15.3697 24.9201L15.363 24.9262L15.3519 24.9365L13.9101 23.306C13.8135 23.306 13.7194 23.319 13.6211 23.319C13.5024 23.319 13.38 23.3068 13.2625 23.306L13.2621 23.3752H13.2906C13.4428 23.3752 13.5996 23.4914 13.5996 23.681V25.0466C13.5996 25.3064 13.5272 25.4718 13.2939 25.4728L13.2625 25.4718V25.5419C13.4029 25.5402 13.5472 25.5285 13.6891 25.5285C13.8249 25.5285 13.9595 25.5402 14.0932 25.5419V25.4728H14.0522C13.797 25.4718 13.7336 25.3613 13.7336 25.0787V23.7063L15.4178 25.5901ZM15.5412 25.6185L15.4074 25.6136L13.7615 23.7794V25.0787C13.7657 25.3613 13.8084 25.4412 14.0522 25.4447H14.1221V25.4579V25.5694H14.1075C13.9674 25.5694 13.8276 25.557 13.6891 25.557C13.5444 25.557 13.3955 25.5694 13.2479 25.5694H13.2336V25.5555V25.4447H13.2479H13.2939C13.5084 25.4429 13.5693 25.3054 13.5722 25.0466V23.681C13.5714 23.5085 13.4296 23.4034 13.2906 23.403H13.2336V23.3884V23.2779H13.2479C13.3722 23.2779 13.4987 23.2908 13.6211 23.2908C13.7173 23.2908 13.8113 23.2779 13.9207 23.2829L15.3459 24.8869V23.6942C15.3441 23.4361 15.1723 23.4051 15.0771 23.403H14.9916V23.3884V23.2779H15.0063C15.1591 23.2779 15.3088 23.2908 15.4605 23.2908C15.5921 23.2908 15.7255 23.2779 15.8591 23.2779H15.8737V23.291V23.403H15.8591H15.811C15.6766 23.407 15.5397 23.4191 15.5358 23.8007V25.2772C15.5358 25.3898 15.5391 25.5031 15.5546 25.6022L15.5575 25.6185H15.5412Z" fill="#211D1D"/>
    <path d="M16.3447 23.4537C16.1012 23.4537 16.0925 23.5121 16.0432 23.7489H15.9463C15.9594 23.6583 15.9751 23.5674 15.9855 23.4729C15.998 23.3825 16.0046 23.2912 16.0046 23.1979H16.0828C16.1088 23.2951 16.1897 23.2912 16.2773 23.2912H17.9509C18.0382 23.2912 18.1195 23.2884 18.1263 23.1911L18.2033 23.2047C18.1915 23.2912 18.1783 23.3792 18.1682 23.4669C18.1616 23.5542 18.1616 23.6422 18.1616 23.7295L18.0646 23.766C18.0582 23.6455 18.0415 23.4537 17.8245 23.4537H17.2927V25.1793C17.2927 25.4299 17.4063 25.458 17.5617 25.458H17.623V25.5556C17.4969 25.5556 17.2694 25.5428 17.0945 25.5428C16.9003 25.5428 16.6726 25.5556 16.5461 25.5556V25.458H16.6077C16.7866 25.458 16.8768 25.4423 16.8768 25.1865V23.4537H16.3447Z" fill="#211D1D"/>
    <path d="M17.6237 25.5696C17.4957 25.5696 17.2688 25.5566 17.0945 25.5566C16.9003 25.5566 16.674 25.5696 16.546 25.5696H16.5324V25.5556V25.4445H16.546H16.608C16.7869 25.4402 16.859 25.4381 16.8625 25.1864V23.4677H16.3447V23.4537V23.4402H16.891V25.1864C16.891 25.4462 16.7862 25.473 16.608 25.473H16.5603V25.5413C16.6885 25.5403 16.9063 25.5285 17.0945 25.5285C17.2638 25.5285 17.4804 25.5403 17.6088 25.5413V25.473H17.5617C17.4048 25.473 17.278 25.4348 17.278 25.1793V23.4402H17.8243C18.0421 23.4406 18.0706 23.6252 18.0774 23.7456L18.1482 23.7197C18.1482 23.6355 18.1486 23.5507 18.154 23.4648C18.1632 23.3821 18.1754 23.299 18.1875 23.216L18.1383 23.2078C18.1222 23.3019 18.0314 23.3073 17.9505 23.3062H16.2777H16.2605C16.1839 23.3062 16.1012 23.3023 16.0723 23.2121H16.0182C16.0182 23.3019 16.0118 23.3886 15.999 23.4755C15.9897 23.5642 15.9755 23.65 15.9633 23.7348H16.0325C16.0756 23.5096 16.103 23.4363 16.3447 23.4402V23.4537V23.4677C16.1051 23.4726 16.1105 23.5125 16.057 23.7523L16.0553 23.7635H16.0436H15.9298L15.9319 23.7466C15.9445 23.6562 15.9615 23.5653 15.9716 23.4708C15.9844 23.381 15.9908 23.2909 15.9908 23.1979V23.1836H16.0046H16.0938L16.0959 23.1939C16.1183 23.2759 16.1778 23.2763 16.2605 23.278H16.2777H17.9505C18.0403 23.2763 18.1065 23.2748 18.1119 23.19L18.113 23.175L18.1276 23.1779L18.2188 23.1921L18.2174 23.2061C18.2046 23.2934 18.1918 23.381 18.1825 23.4677C18.1757 23.5546 18.1757 23.6423 18.1757 23.7296V23.7395L18.1665 23.7435L18.0514 23.7854L18.051 23.766C18.0421 23.6444 18.0293 23.4677 17.8243 23.4677H17.3065V25.1793C17.3097 25.4241 17.4071 25.4412 17.5617 25.4445H17.6369V25.458V25.5696H17.6237Z" fill="#211D1D"/>
    <path d="M18.3074 25.4579H18.3526C18.4692 25.4579 18.5925 25.4426 18.5925 25.2732V23.5744C18.5925 23.4051 18.4692 23.3898 18.3526 23.3898H18.3074V23.291C18.5044 23.291 18.8431 23.3046 19.1146 23.3046C19.3875 23.3046 19.7244 23.291 19.9442 23.291C19.9389 23.4311 19.942 23.6456 19.9517 23.7882L19.8536 23.8143C19.8384 23.6035 19.7992 23.4351 19.4585 23.4351H19.0087V24.2839H19.3936C19.5885 24.2839 19.631 24.1745 19.6499 23.9992H19.7467C19.7407 24.1256 19.7372 24.2519 19.7372 24.3784C19.7372 24.5021 19.7407 24.625 19.7467 24.748L19.6499 24.7676C19.631 24.5729 19.621 24.4464 19.3968 24.4464H19.0087V25.2019C19.0087 25.4129 19.1961 25.4129 19.4032 25.4129C19.7931 25.4129 19.9645 25.3869 20.0619 25.0174L20.1523 25.0401C20.1104 25.2126 20.0714 25.3834 20.0423 25.5558C19.8352 25.5558 19.4616 25.543 19.1699 25.543C18.8776 25.543 18.492 25.5558 18.3074 25.5558V25.4579Z" fill="#211D1D"/>
    <path d="M20.0305 25.5413C20.0582 25.3777 20.0953 25.2137 20.1356 25.0505L20.0714 25.0345C19.9742 25.3977 19.7863 25.4297 19.4032 25.4268C19.1986 25.4268 18.9945 25.4268 18.9934 25.202V24.4326H19.3968C19.6234 24.4297 19.6459 24.567 19.662 24.7515L19.7322 24.7369C19.7265 24.6176 19.7233 24.497 19.7233 24.3785C19.7233 24.2569 19.7265 24.1353 19.7322 24.0125H19.662C19.6441 24.182 19.5918 24.3003 19.3933 24.2982H18.9934V23.4202H19.4585C19.796 23.4184 19.8522 23.5926 19.8662 23.7958L19.936 23.7769C19.9306 23.6853 19.9275 23.5687 19.9275 23.4605C19.9275 23.4037 19.9285 23.3521 19.93 23.3061C19.7097 23.3069 19.3811 23.3189 19.1146 23.3189C18.8483 23.3189 18.5198 23.3069 18.3213 23.3061V23.3752H18.3526C18.4684 23.3752 18.6064 23.3952 18.6071 23.5741V25.2732C18.6064 25.4522 18.4684 25.4714 18.3526 25.4728H18.3213V25.5413C18.5098 25.5405 18.885 25.5284 19.1699 25.5284C19.456 25.5284 19.821 25.5405 20.0305 25.5413ZM20.0423 25.5694C19.8342 25.5694 19.4613 25.5562 19.1699 25.5562C18.8776 25.5562 18.4926 25.5694 18.3074 25.5694H18.2931V25.5556V25.4579V25.4447H18.3074H18.3526C18.4699 25.4425 18.5772 25.4319 18.5782 25.2732V23.5741C18.5772 23.4163 18.4699 23.4056 18.3526 23.4027H18.2931V23.3895V23.278H18.3074C18.5048 23.278 18.8431 23.2908 19.1146 23.2908C19.3869 23.2908 19.7236 23.278 19.9442 23.278H19.9589V23.2922C19.956 23.341 19.9549 23.3984 19.9549 23.4605C19.9549 23.572 19.9589 23.6946 19.9649 23.7869V23.7986L19.9546 23.8018L19.8404 23.8317L19.8402 23.8147C19.821 23.6048 19.7931 23.4516 19.4585 23.4487H19.0215V24.2697H19.3933C19.5807 24.2683 19.6135 24.1725 19.6356 23.9974L19.637 23.985H19.6492H19.7618V23.9993C19.755 24.1258 19.751 24.2519 19.751 24.3785C19.751 24.501 19.755 24.6243 19.7618 24.748V24.759L19.75 24.7619L19.637 24.784L19.6356 24.7689C19.6135 24.5713 19.6125 24.4629 19.3968 24.4604L19.0215 24.4596V25.202C19.0219 25.3991 19.1916 25.3981 19.4032 25.3991C19.7942 25.3969 19.9502 25.3777 20.0479 25.0135L20.0512 25.0003L20.065 25.0032L20.1688 25.0298L20.1659 25.0434C20.1238 25.2145 20.0853 25.3867 20.0561 25.5577L20.054 25.5694H20.0423Z" fill="#211D1D"/>
    <path d="M21.0057 24.3878H21.1639C21.4887 24.3878 21.6636 24.2652 21.6636 23.8821C21.6636 23.5941 21.4786 23.4085 21.19 23.4085C21.092 23.4085 21.0506 23.4188 21.0057 23.4217V24.3878ZM20.5905 23.6354C20.5905 23.3984 20.4608 23.3895 20.3603 23.3895H20.3011V23.2912C20.4049 23.2912 20.6062 23.3044 20.8044 23.3044C20.9982 23.3044 21.1543 23.2912 21.3268 23.2912C21.7344 23.2912 22.0977 23.4017 22.0977 23.8629C22.0977 24.1543 21.9038 24.3325 21.6475 24.4341L22.2024 25.2633C22.293 25.401 22.3571 25.439 22.5164 25.458V25.5556C22.4094 25.5556 22.3058 25.5428 22.1988 25.5428C22.0977 25.5428 21.9943 25.5556 21.8938 25.5556C21.6443 25.2284 21.4298 24.8779 21.2191 24.5043H21.0057V25.1985C21.0057 25.4491 21.1219 25.458 21.2709 25.458H21.33V25.5556C21.1444 25.5556 20.9565 25.5428 20.7715 25.5428C20.6161 25.5428 20.4637 25.5556 20.3011 25.5556V25.458H20.3603C20.4793 25.458 20.5905 25.4035 20.5905 25.2831V23.6354Z" fill="#211D1D"/>
    <path d="M21.164 24.3739C21.4848 24.3708 21.6469 24.2595 21.6498 23.8825C21.6484 23.5995 21.4719 23.4239 21.1897 23.4221C21.102 23.4221 21.061 23.43 21.0197 23.4346V24.3739H21.164ZM21.0051 24.4015H20.9911V23.4082L21.0033 23.4071C21.0479 23.4036 21.0914 23.395 21.1897 23.395C21.4848 23.395 21.6772 23.5871 21.6779 23.8825C21.6768 24.2696 21.4908 24.4015 21.164 24.4015H21.0051ZM21.0051 24.4905H21.2268L21.2306 24.4977C21.4417 24.8707 21.6551 25.2207 21.8938 25.5418C21.9929 25.5418 22.0974 25.5286 22.1979 25.5286C22.3015 25.5286 22.4017 25.5398 22.5026 25.5411V25.4698C22.35 25.4517 22.2792 25.406 22.1907 25.2717L21.6259 24.4271L21.6422 24.4203C21.8961 24.3206 22.0839 24.1474 22.0842 23.8623C22.0839 23.4129 21.7339 23.3077 21.3269 23.3062C21.1554 23.3062 20.999 23.3188 20.8045 23.3188C20.6131 23.3188 20.4213 23.3066 20.3152 23.3062V23.3754H20.36C20.4605 23.3754 20.6034 23.3918 20.6034 23.6356V25.283C20.6034 25.4135 20.4822 25.4727 20.36 25.4727H20.3152V25.5411C20.4715 25.5408 20.6187 25.5286 20.771 25.5286C20.9527 25.5286 21.1355 25.5408 21.3151 25.5411V25.4727H21.271C21.123 25.4727 20.9911 25.4545 20.9911 25.1986V24.4905H21.0051ZM22.5164 25.5693C22.4078 25.5693 22.3048 25.5568 22.1979 25.5568C22.0996 25.5568 21.9954 25.5693 21.8821 25.5646C21.6341 25.2378 21.4209 24.8897 21.2111 24.5186H21.0197V25.1986C21.0229 25.4428 21.1209 25.4407 21.271 25.4446H21.3436V25.4577V25.5693H21.329C21.1434 25.5693 20.9548 25.5568 20.771 25.5568C20.6158 25.5568 20.4641 25.5693 20.3009 25.5693H20.2877V25.5557V25.4446H20.3009H20.36C20.4769 25.4434 20.5745 25.3926 20.5757 25.283V23.6356C20.5735 23.4057 20.4605 23.4061 20.36 23.4028H20.2877V23.3896V23.2781H20.3009C20.4067 23.2781 20.6067 23.2905 20.8045 23.2905C20.9975 23.2905 21.1537 23.2781 21.3269 23.2781C21.7349 23.2781 22.1116 23.3918 22.1127 23.8623C22.1127 24.1551 21.9188 24.338 21.669 24.4399L22.2136 25.2557C22.304 25.3903 22.3604 25.4242 22.5183 25.4446L22.53 25.4456V25.4577V25.5693H22.5164Z" fill="#211D1D"/>
    <path d="M24.7182 24.9167L24.7243 24.9103V23.694C24.7243 23.4281 24.5397 23.3896 24.4427 23.3896H24.3711V23.2913C24.524 23.2913 24.6722 23.3045 24.8254 23.3045C24.9588 23.3045 25.0913 23.2913 25.2246 23.2913V23.3896H25.1765C25.04 23.3896 24.8871 23.415 24.8871 23.8008V25.277C24.8871 25.3903 24.89 25.5037 24.9059 25.6042H24.7835L23.113 23.7428V25.0784C23.113 25.3615 23.1683 25.4576 23.4181 25.4576H23.4737V25.5557C23.3337 25.5557 23.194 25.5429 23.0546 25.5429C22.9086 25.5429 22.7596 25.5557 22.6138 25.5557V25.4576H22.6584C22.8829 25.4576 22.9506 25.3063 22.9506 25.0464V23.6808C22.9506 23.499 22.8013 23.3896 22.6559 23.3896H22.6138V23.2913C22.7364 23.2913 22.864 23.3045 22.9866 23.3045C23.0835 23.3045 23.1776 23.2913 23.2749 23.2913L24.7182 24.9167Z" fill="#211D1D"/>
    <path d="M24.7104 24.9102V24.909L24.7086 24.9069L24.7104 24.9102ZM24.7835 25.5901H24.8894C24.8758 25.4932 24.8729 25.3844 24.8729 25.2772V23.8007C24.8729 23.4115 25.0372 23.376 25.1762 23.3752H25.21V23.306C25.0825 23.3068 24.9542 23.319 24.8256 23.319C24.677 23.319 24.5316 23.3068 24.3855 23.306V23.3752H24.4429C24.5426 23.376 24.7393 23.4194 24.7393 23.6942L24.7346 24.9201L24.7286 24.9262L24.7183 24.9372L23.2749 23.306C23.1787 23.306 23.0839 23.319 22.9867 23.319C22.8662 23.319 22.745 23.3068 22.6275 23.306V23.3752H22.6556C22.8081 23.376 22.9646 23.4906 22.9646 23.681V25.0463C22.9646 25.3064 22.8908 25.4718 22.6581 25.4728H22.6275V25.5413C22.7679 25.5402 22.9122 25.5285 23.0548 25.5285C23.1902 25.5285 23.3248 25.5402 23.4592 25.5413V25.4728H23.4183C23.1626 25.4728 23.099 25.3617 23.0982 25.0787V23.7063L24.7835 25.5901ZM24.9061 25.6185L24.7728 25.6136L23.1271 23.7794V25.0787C23.131 25.3617 23.1737 25.4412 23.4183 25.4447H23.4869V25.4579V25.5694H23.4731C23.3327 25.5694 23.1934 25.5562 23.0548 25.5562C22.9097 25.5562 22.7593 25.5694 22.6139 25.5694H22.5986V25.5555V25.4447H22.6139H22.6581C22.8723 25.4436 22.9343 25.3054 22.9364 25.0463V23.681C22.9357 23.5079 22.7949 23.4034 22.6556 23.403H22.5986V23.3898V23.2779H22.6139C22.7372 23.2779 22.8645 23.2908 22.9867 23.2908C23.0822 23.2908 23.1759 23.2779 23.2846 23.2819L24.7104 24.8869V23.6942C24.7101 23.4361 24.537 23.4045 24.4429 23.403H24.357V23.3898V23.2779H24.3711C24.5248 23.2779 24.6741 23.2908 24.8256 23.2908C24.9575 23.2908 25.0907 23.2779 25.2244 23.2779H25.2383V23.2926V23.403H25.2244H25.1762C25.0426 23.4062 24.9047 23.4191 24.9011 23.8007V25.2772C24.9011 25.3898 24.904 25.5021 24.9204 25.6022L24.9218 25.6185H24.9061Z" fill="#211D1D"/>
    <path d="M26.2199 23.6549H26.2134L25.9116 24.5729H26.5179L26.2199 23.6549ZM25.7469 25.0919C25.7138 25.2019 25.6744 25.2872 25.6744 25.3445C25.6744 25.4422 25.8115 25.4579 25.918 25.4579H25.9541V25.5555C25.8236 25.5491 25.6911 25.543 25.5609 25.543C25.4441 25.543 25.3278 25.5491 25.2114 25.5555V25.4579H25.2302C25.3567 25.4579 25.4643 25.3834 25.5118 25.2473L26.0314 23.7594C26.0734 23.639 26.1326 23.4771 26.1515 23.3563C26.2551 23.321 26.3852 23.2565 26.4469 23.2173L26.4725 23.2113L26.4954 23.2205L26.5249 23.3017L27.1211 24.9981C27.1601 25.1115 27.1992 25.2319 27.2409 25.3292C27.2801 25.4197 27.3486 25.4579 27.4555 25.4579H27.4743V25.5555C27.329 25.5491 27.1828 25.543 27.0274 25.543C26.8689 25.543 26.7064 25.5491 26.5414 25.5555V25.4579H26.577C26.6512 25.4579 26.7776 25.4457 26.7776 25.3644C26.7776 25.3221 26.7487 25.2345 26.7121 25.1307L26.5859 24.7543H25.8497L25.7469 25.0919Z" fill="#211D1D"/>
    <path d="M25.9305 24.5592H26.4982L26.2159 23.6896L25.9305 24.5592ZM25.8915 24.5874L26.2024 23.6411H26.2134H26.2198H26.2294L26.5373 24.5874H25.8915ZM26.5548 25.5403C26.7148 25.5353 26.8727 25.5285 27.0273 25.5285C27.1785 25.5285 27.3192 25.5353 27.4604 25.5403V25.473H27.4553C27.345 25.474 27.2686 25.4294 27.228 25.3347C27.1859 25.2363 27.1464 25.1159 27.1082 25.0025L26.5114 23.3061L26.4835 23.2278L26.4786 23.2245H26.4726L26.454 23.2289C26.3913 23.2691 26.2608 23.3333 26.1646 23.3585C26.145 23.4819 26.0866 23.6433 26.0441 23.7635L25.5257 25.2523C25.4761 25.3931 25.3624 25.473 25.2301 25.473H25.2252V25.5403C25.336 25.5353 25.4485 25.5285 25.5612 25.5285C25.6867 25.5285 25.8147 25.5353 25.9386 25.5403V25.473H25.918C25.8122 25.4715 25.6646 25.46 25.6611 25.345C25.6611 25.2804 25.7002 25.1972 25.7326 25.088L25.747 25.0919L25.7326 25.0876L25.8395 24.741H26.5951L26.7251 25.1262C26.7619 25.2306 26.7915 25.3168 26.7915 25.3646C26.7864 25.464 26.6499 25.4711 26.5769 25.473H26.5548V25.5403ZM27.4736 25.5696C27.3285 25.5634 27.1828 25.5564 27.0273 25.5564C26.8688 25.5564 26.7073 25.5634 26.5413 25.5696L26.5267 25.5706V25.5556V25.4433H26.5413H26.5769C26.6514 25.4433 26.7625 25.427 26.7625 25.3646C26.7633 25.3275 26.7352 25.2385 26.6991 25.1355L26.5758 24.7687H25.8603L25.759 25.0959C25.7259 25.2071 25.6878 25.2926 25.6878 25.345C25.6888 25.4241 25.8103 25.4433 25.918 25.4433H25.9675V25.4583V25.5706L25.953 25.5696C25.8232 25.5634 25.6902 25.5564 25.5612 25.5564C25.4446 25.5564 25.3278 25.5634 25.2117 25.5696L25.1974 25.5706V25.5556V25.4433H25.2113H25.2301C25.351 25.4433 25.4514 25.3742 25.4982 25.2427L26.0177 23.7545C26.0604 23.6341 26.1186 23.4726 26.1467 23.3436C26.2483 23.3083 26.3783 23.2431 26.4415 23.2039L26.4726 23.196L26.5077 23.2156L26.5373 23.2968L27.1349 24.9936C27.1731 25.1068 27.2119 25.2267 27.254 25.3221C27.2915 25.4092 27.3514 25.4433 27.4553 25.4433H27.4889V25.4583V25.5706L27.4736 25.5696Z" fill="#211D1D"/>
    <path d="M27.6177 23.4537C27.374 23.4537 27.3647 23.5121 27.3159 23.7489H27.2182C27.2314 23.6583 27.2477 23.5674 27.2574 23.4729C27.2706 23.3825 27.277 23.2912 27.277 23.1979H27.3547C27.3807 23.2951 27.462 23.2912 27.5493 23.2912H29.2229C29.3102 23.2912 29.3907 23.2884 29.3975 23.1911L29.4755 23.2047C29.463 23.2912 29.4506 23.3792 29.4399 23.4669C29.432 23.5542 29.432 23.6422 29.432 23.7295L29.3358 23.766C29.3305 23.6455 29.3133 23.4537 29.0963 23.4537H28.5643V25.1793C28.5643 25.4299 28.6779 25.458 28.8336 25.458H28.895V25.5556C28.7689 25.5556 28.5418 25.5428 28.3664 25.5428C28.1723 25.5428 27.9445 25.5556 27.8177 25.5556V25.458H27.8796C28.059 25.458 28.1498 25.4423 28.1498 25.1865V23.4537H27.6177Z" fill="#211D1D"/>
    <path d="M28.8947 25.5696C28.7682 25.5696 28.5413 25.5566 28.3666 25.5566C28.1728 25.5566 27.9461 25.5696 27.8178 25.5696H27.8043V25.5556V25.4445H27.8178H27.8797C28.0587 25.4402 28.13 25.4381 28.1346 25.1864V23.4677H27.6175V23.4537V23.4402H28.1627V25.1864C28.1627 25.4462 28.0584 25.4715 27.8797 25.473H27.832V25.5417C27.9604 25.5403 28.1781 25.5285 28.3666 25.5285C28.5359 25.5285 28.7529 25.5403 28.8813 25.5417L28.8805 25.473H28.8332C28.677 25.4715 28.5508 25.4348 28.5506 25.1793V23.4402H29.0962C29.3146 23.4406 29.3424 23.6252 29.3488 23.7456L29.4193 23.7197C29.4193 23.6355 29.4193 23.5507 29.4261 23.4654C29.4351 23.3821 29.4479 23.299 29.4593 23.2167L29.4108 23.2078C29.3951 23.3019 29.3042 23.3073 29.2227 23.3062H27.549H27.5327C27.4561 23.3065 27.3737 23.3023 27.3442 23.211H27.2911C27.2901 23.3019 27.2843 23.3886 27.2711 23.4755C27.2622 23.5649 27.2465 23.65 27.2344 23.7348H27.3043C27.347 23.5096 27.3745 23.4355 27.6175 23.4402V23.4537V23.4677C27.3766 23.4719 27.3823 23.5125 27.3295 23.7523L27.3271 23.7635H27.3161H27.2017L27.2038 23.7466C27.217 23.6562 27.2333 23.5653 27.243 23.4719C27.2562 23.381 27.2622 23.2909 27.2622 23.1979V23.1836H27.2771H27.3648L27.3677 23.1939C27.3906 23.2759 27.4503 23.2763 27.5327 23.278H27.549H29.2227C29.3125 23.2763 29.3784 23.2748 29.3837 23.19L29.3841 23.175L29.3998 23.1779L29.4921 23.1921L29.4892 23.2061C29.4753 23.2934 29.4635 23.381 29.4539 23.4677C29.4479 23.5546 29.4479 23.6423 29.4479 23.7296V23.7395L29.4379 23.7435L29.3227 23.7854V23.766C29.3146 23.6444 29.3014 23.4677 29.0962 23.4677H28.5783V25.1793C28.5815 25.4241 28.6788 25.4412 28.8332 25.4445H28.909V25.458V25.5696H28.8947Z" fill="#211D1D"/>
    <path d="M29.595 25.4579H29.6402C29.758 25.4579 29.8805 25.4426 29.8805 25.2732V23.5744C29.8805 23.4051 29.758 23.3898 29.6402 23.3898H29.595V23.291C29.7215 23.291 29.9158 23.3046 30.0747 23.3046C30.2368 23.3046 30.4314 23.291 30.5846 23.291V23.3898H30.5394C30.4219 23.3898 30.2981 23.4051 30.2981 23.5744V25.2732C30.2981 25.4426 30.4219 25.4579 30.5394 25.4579H30.5846V25.5558C30.4286 25.5558 30.2339 25.543 30.0718 25.543C29.9125 25.543 29.7215 25.5558 29.595 25.5558V25.4579Z" fill="#211D1D"/>
    <path d="M30.5697 25.5413V25.4728H30.5394C30.4229 25.4728 30.285 25.4522 30.285 25.2732V23.5741C30.285 23.3952 30.4229 23.3752 30.5394 23.3752H30.5697V23.3061C30.42 23.3069 30.233 23.3189 30.0747 23.3189C29.9207 23.3189 29.7347 23.3069 29.6093 23.3061V23.3752H29.6403C29.7553 23.3752 29.8944 23.3952 29.8944 23.5741V25.2732C29.8944 25.4522 29.7553 25.4728 29.6403 25.4728H29.6093V25.5413C29.7347 25.5395 29.9176 25.5284 30.0718 25.5284C30.2293 25.5284 30.4172 25.5403 30.5697 25.5413ZM30.5846 25.5694C30.4279 25.5694 30.2336 25.5562 30.0718 25.5562C29.9132 25.5562 29.7215 25.5694 29.5951 25.5694H29.5815V25.5556V25.4579V25.4447H29.5951H29.6403C29.7578 25.4425 29.8651 25.4319 29.8655 25.2732V23.5741C29.8651 23.4163 29.7578 23.4052 29.6403 23.4027H29.5815V23.3895V23.278H29.5951C29.7215 23.278 29.9165 23.2908 30.0747 23.2908C30.2369 23.2908 30.431 23.278 30.5846 23.278H30.5978V23.2912V23.4027H30.5846H30.5394C30.4207 23.4052 30.3139 23.4163 30.3127 23.5741V25.2732C30.3139 25.4319 30.4207 25.4425 30.5394 25.4447H30.5978V25.4579V25.5694H30.5846Z" fill="#211D1D"/>
    <path d="M31.9267 25.4616C32.5567 25.4616 32.6653 24.9067 32.6653 24.4342C32.6653 23.9598 32.4102 23.3861 31.8718 23.3861C31.3043 23.3861 31.1358 23.8919 31.1358 24.326C31.1358 24.9067 31.4017 25.4616 31.9267 25.4616ZM31.8782 23.2432C32.5691 23.2432 33.1205 23.6716 33.1205 24.3627C33.1205 25.1084 32.5856 25.6042 31.8945 25.6042C31.206 25.6042 30.6821 25.1377 30.6821 24.4395C30.6821 23.7661 31.2038 23.2432 31.8782 23.2432Z" fill="#211D1D"/>
    <path d="M31.1211 24.3259C31.1221 23.8897 31.2932 23.3716 31.8715 23.3716C32.4229 23.3726 32.6795 23.9574 32.6799 24.4343C32.6795 24.9068 32.568 25.4752 31.9264 25.4752V25.4617V25.4477C32.5441 25.4475 32.6506 24.9068 32.652 24.4343C32.652 23.9638 32.3987 23.4007 31.8715 23.4C31.3153 23.4007 31.1506 23.8943 31.1496 24.3259C31.1502 24.9043 31.4136 25.4463 31.9264 25.4477V25.4617V25.4752C31.3887 25.4745 31.1221 24.91 31.1211 24.3259ZM30.6671 24.4399C30.6688 23.7578 31.1966 23.23 31.8779 23.2286V23.2432V23.2575C31.2105 23.2575 30.6944 23.7729 30.6944 24.4399C30.6956 25.1295 31.2134 25.5896 31.8944 25.5899C32.5783 25.5896 33.1054 25.1007 33.1072 24.3619C33.1068 23.6798 32.5637 23.2582 31.8779 23.2575V23.2432V23.2286C32.5744 23.23 33.1328 23.6627 33.1339 24.3619C33.1336 25.1156 32.5922 25.617 31.8944 25.6184C31.2009 25.617 30.6688 25.1445 30.6671 24.4399Z" fill="#211D1D"/>
    <path d="M35.3064 24.9167L35.3128 24.9103V23.694C35.3128 23.4281 35.1279 23.3896 35.0296 23.3896H34.9598V23.2913C35.1111 23.2913 35.2612 23.3045 35.413 23.3045C35.5469 23.3045 35.6795 23.2913 35.8122 23.2913V23.3896H35.7637C35.6268 23.3896 35.4743 23.415 35.4743 23.8008V25.277C35.4743 25.3903 35.4782 25.5037 35.4943 25.6042H35.3706L33.7006 23.7428V25.0784C33.7006 25.3615 33.7555 25.4576 34.0057 25.4576H34.0606V25.5557C33.9212 25.5557 33.7823 25.5429 33.6421 25.5429C33.4964 25.5429 33.3467 25.5557 33.2006 25.5557V25.4576H33.2466C33.4712 25.4576 33.5377 25.3063 33.5377 25.0464V23.6808C33.5377 23.499 33.3895 23.3896 33.2427 23.3896H33.2006V23.2913C33.3243 23.2913 33.4504 23.3045 33.5741 23.3045C33.671 23.3045 33.7651 23.2913 33.8624 23.2913L35.3064 24.9167Z" fill="#211D1D"/>
    <path d="M35.2981 24.9102V24.909L35.2952 24.9069L35.2981 24.9102ZM35.3705 25.5901H35.4777C35.4635 25.4928 35.4606 25.3844 35.4606 25.2772V23.8007C35.4606 23.4113 35.6246 23.376 35.7636 23.3752H35.7985V23.306C35.6699 23.3068 35.5419 23.319 35.4122 23.319C35.2653 23.319 35.1203 23.3068 34.9732 23.306V23.3752H35.0295C35.1307 23.376 35.3262 23.42 35.3262 23.6942L35.3224 24.9201L35.3167 24.9262L35.3063 24.9372L33.8623 23.306C33.7668 23.306 33.672 23.319 33.574 23.319C33.4542 23.319 33.332 23.3068 33.2148 23.306V23.3752H33.2426C33.3954 23.376 33.5523 23.4906 33.5523 23.681V25.0466C33.5523 25.3064 33.4799 25.4718 33.2465 25.4728H33.2148V25.5413C33.3555 25.5402 33.4996 25.5285 33.6425 25.5285C33.7779 25.5285 33.9125 25.5402 34.0465 25.5413V25.4728H34.0045C33.75 25.4728 33.6866 25.3617 33.6866 25.0787V23.7063L35.3705 25.5901ZM35.4942 25.6185L35.3598 25.6136L33.7141 23.7794V25.0787C33.718 25.3617 33.7611 25.4408 34.0045 25.4436H34.075V25.4583V25.5694H34.0609C33.9204 25.5694 33.781 25.557 33.6425 25.557C33.497 25.557 33.3481 25.5694 33.2005 25.5694H33.1873V25.5555V25.4436H33.2005H33.2465C33.4604 25.4429 33.522 25.3054 33.5238 25.0466V23.681C33.5238 23.5079 33.3826 23.4034 33.2426 23.403H33.1873V23.3898V23.2779H33.2005C33.3248 23.2779 33.4515 23.2908 33.574 23.2908C33.6699 23.2908 33.7632 23.2779 33.8737 23.2829L35.2981 24.8869V23.6942C35.2975 23.4361 35.1253 23.4051 35.0295 23.403H34.9449V23.3898V23.2779H34.9592C35.1117 23.2779 35.2622 23.2908 35.4122 23.2908C35.5458 23.2908 35.6773 23.2779 35.8121 23.2779H35.8259V23.291V23.403H35.8121H35.7636C35.6303 23.407 35.492 23.4191 35.4892 23.8007V25.2772C35.4892 25.3898 35.492 25.5031 35.507 25.6022L35.5097 25.6185H35.4942Z" fill="#211D1D"/>
    <path d="M36.8071 23.6549H36.8005L36.4987 24.5729H37.1064L36.8071 23.6549ZM36.3334 25.0919C36.3017 25.2019 36.2625 25.2872 36.2625 25.3445C36.2625 25.4422 36.3996 25.4579 36.5051 25.4579H36.5416V25.5555C36.4114 25.5491 36.2788 25.543 36.1488 25.543C36.0309 25.543 35.9151 25.5491 35.7991 25.5555V25.4579H35.817C35.9442 25.4579 36.0519 25.3834 36.1 25.2473L36.6196 23.7594C36.6616 23.639 36.7196 23.4771 36.739 23.3563C36.8426 23.321 36.9724 23.2565 37.034 23.2173L37.0604 23.2113L37.0829 23.2205L37.1128 23.3017L37.709 24.9981C37.7472 25.1115 37.787 25.2319 37.8291 25.3292C37.8676 25.4197 37.9363 25.4579 38.0432 25.4579H38.0626V25.5555C37.9167 25.5491 37.7703 25.543 37.6149 25.543C37.4559 25.543 37.2935 25.5491 37.1281 25.5555V25.4579H37.1641C37.2382 25.4579 37.3655 25.4457 37.3655 25.3644C37.3655 25.3221 37.3358 25.2345 37.2999 25.1307L37.1741 24.7543H36.4386L36.3334 25.0919Z" fill="#211D1D"/>
    <path d="M36.5186 24.5585H37.0863L36.8034 23.6903L36.5186 24.5585ZM36.4791 24.5863L36.7916 23.6411H36.8005H36.807H36.8177L37.1242 24.5863H36.4791ZM37.1424 25.5407C37.3023 25.5353 37.4605 25.5285 37.6153 25.5285C37.7656 25.5285 37.9068 25.5353 38.0478 25.5403V25.473H38.0429C37.9331 25.473 37.8562 25.4294 37.8158 25.3347C37.7724 25.2363 37.7339 25.1159 37.6954 25.0025L37.0992 23.3061L37.071 23.2289L37.066 23.2245H37.0604L37.0415 23.2289C36.9787 23.2683 36.8493 23.3337 36.7521 23.3585C36.7328 23.4819 36.6736 23.6433 36.6323 23.7635L36.1127 25.2523C36.0632 25.3931 35.951 25.473 35.8173 25.473H35.8119V25.5403C35.9242 25.5353 36.0361 25.5285 36.1491 25.5285C36.2745 25.5285 36.4021 25.5353 36.5279 25.5403V25.473H36.5051C36.4 25.4715 36.2521 25.46 36.2481 25.3446C36.2489 25.2804 36.2892 25.1974 36.3208 25.088L36.3334 25.0919L36.3208 25.0876L36.4271 24.741H37.184L37.3134 25.1262C37.3497 25.2306 37.3786 25.3168 37.3786 25.3646C37.374 25.464 37.2378 25.4711 37.1634 25.473H37.1424V25.5407ZM38.0617 25.5696C37.9157 25.5638 37.7693 25.5566 37.6153 25.5566C37.4566 25.5566 37.2941 25.5638 37.1288 25.5696L37.1145 25.5706V25.5556V25.4448H37.128H37.1634C37.2389 25.4448 37.3509 25.427 37.3515 25.3646C37.3519 25.3275 37.323 25.2387 37.2859 25.1355L37.163 24.7687H36.4471L36.3472 25.0959C36.3148 25.2075 36.2756 25.2926 36.2766 25.3446C36.2766 25.4241 36.3982 25.4448 36.5051 25.4448H36.5551V25.458V25.5706L36.5404 25.5696C36.411 25.5638 36.2778 25.5566 36.1491 25.5566C36.0322 25.5566 35.916 25.5638 35.7991 25.5696L35.7849 25.5706V25.5556V25.4448H35.7991H35.8173C35.9381 25.4433 36.0398 25.3739 36.0867 25.2427L36.6059 23.7545C36.6473 23.6341 36.7058 23.4726 36.7339 23.3436C36.8362 23.3083 36.9667 23.2431 37.029 23.2039L37.0604 23.1968L37.096 23.2159L37.1252 23.2968L37.7221 24.9936C37.7606 25.1068 37.7999 25.2267 37.8422 25.3229C37.8804 25.4092 37.9384 25.4433 38.0429 25.4448H38.0761V25.458V25.5706L38.0617 25.5696Z" fill="#211D1D"/>
    <path d="M38.8801 25.2378C38.8801 25.3676 38.9703 25.4064 39.0741 25.4196C39.2069 25.4296 39.3529 25.4296 39.5027 25.4132C39.6381 25.3975 39.7557 25.3191 39.8136 25.2378C39.8651 25.1662 39.8937 25.0761 39.9143 25.0041H40.0085C39.9721 25.189 39.9268 25.3711 39.8876 25.5557C39.6027 25.5557 39.3168 25.5429 39.0323 25.5429C38.7465 25.5429 38.4608 25.5557 38.1757 25.5557V25.4578H38.2201C38.3381 25.4578 38.4643 25.4424 38.4643 25.2407V23.5743C38.4643 23.405 38.3381 23.3897 38.2201 23.3897H38.1757V23.2913C38.3474 23.2913 38.5163 23.3045 38.6877 23.3045C38.8534 23.3045 39.0156 23.2913 39.1812 23.2913V23.3897H39.0998C38.9767 23.3897 38.8801 23.3929 38.8801 23.565V25.2378Z" fill="#211D1D"/>
    <path d="M39.8766 25.5413C39.9142 25.3655 39.957 25.1931 39.9908 25.0178H39.9242C39.9046 25.0894 39.8757 25.176 39.8242 25.2462C39.7641 25.3306 39.6435 25.4098 39.503 25.4268C39.4178 25.4361 39.3336 25.44 39.2545 25.44C39.1918 25.44 39.13 25.4373 39.0715 25.4332C38.9669 25.4216 38.8642 25.3766 38.8653 25.2379V23.5648C38.8653 23.3841 38.979 23.3752 39.0998 23.3752H39.1667V23.3061C39.0072 23.3069 38.8489 23.3189 38.6879 23.3189C38.5193 23.3189 38.355 23.3069 38.1892 23.3061V23.3752H38.2203C38.3364 23.3752 38.478 23.3952 38.478 23.5737V25.2405C38.478 25.4505 38.3368 25.4728 38.2203 25.4728H38.1892V25.5413C38.4691 25.5405 38.7501 25.5284 39.0326 25.5284C39.3139 25.5284 39.5953 25.5405 39.8766 25.5413ZM39.8879 25.5694C39.602 25.5694 39.3168 25.5566 39.0326 25.5566C38.7466 25.5566 38.4608 25.5694 38.175 25.5694H38.1619V25.5556V25.4447H38.175H38.2203C38.3378 25.4419 38.4497 25.4332 38.4509 25.2405V23.5737C38.4497 23.4163 38.3389 23.4052 38.2203 23.4027H38.1619V23.3895V23.278H38.175C38.3479 23.278 38.5164 23.2908 38.6879 23.2908C38.8529 23.2908 39.0149 23.278 39.1815 23.278H39.1943V23.2912V23.4027H39.1815H39.0998C38.974 23.4062 38.8956 23.4006 38.8927 23.5648V25.2379C38.8942 25.3589 38.973 25.3909 39.0754 25.4059C39.1316 25.4098 39.1924 25.4119 39.2545 25.4119C39.3336 25.4119 39.4159 25.408 39.5008 25.3991C39.6326 25.3834 39.7458 25.3075 39.8024 25.2302C39.8522 25.1603 39.8805 25.0715 39.8995 25.0007L39.903 24.9896H39.9142H40.0252L40.022 25.0075C39.9856 25.1923 39.9413 25.3738 39.902 25.5591L39.8985 25.5694H39.8879Z" fill="#211D1D"/>
    <path d="M39.9143 23.5421H39.9542C39.9985 23.5421 40.0188 23.509 40.0188 23.4552C40.0188 23.4007 39.9863 23.3818 39.9519 23.3818H39.9143V23.5421ZM39.7988 23.7225V23.7054C39.8403 23.6996 39.8484 23.7014 39.8484 23.6746V23.4224C39.8484 23.3864 39.8445 23.3743 39.7998 23.3765V23.3586H39.9754C40.0345 23.3586 40.0902 23.3878 40.0902 23.4494C40.0902 23.5008 40.057 23.5375 40.0095 23.5524L40.0651 23.6312C40.0918 23.6659 40.1213 23.6996 40.141 23.7115V23.7225H40.0744C40.0426 23.7225 40.0149 23.6548 39.9519 23.5654H39.9143V23.6783C39.9143 23.7014 39.9223 23.6996 39.9635 23.7054V23.7225H39.7988ZM39.9686 23.8191C40.1213 23.8191 40.2387 23.6893 40.2387 23.5421C40.2387 23.3949 40.1236 23.2634 39.9686 23.2634C39.8146 23.2634 39.6976 23.3949 39.6976 23.5421C39.6976 23.6893 39.8146 23.8191 39.9686 23.8191ZM39.9686 23.2C40.1638 23.2 40.3098 23.3503 40.3098 23.5421C40.3098 23.7339 40.1638 23.8825 39.9686 23.8825C39.7734 23.8825 39.6268 23.7339 39.6268 23.5421C39.6268 23.3503 39.7734 23.2 39.9686 23.2Z" fill="#211D1D"/>
    <path d="M19.7214 11.7563C19.7214 8.7225 22.1806 6.26313 25.2146 6.26313C28.2485 6.26313 30.7078 8.7225 30.7078 11.7563C30.7078 14.7903 28.2485 17.2496 25.2146 17.2496C22.1806 17.2496 19.7214 14.7903 19.7214 11.7563Z" fill="white"/>
    <path d="M28.5369 11.6482C28.5344 10.2413 27.6552 9.04191 26.4161 8.56666V14.7298C27.6552 14.2538 28.5344 13.0555 28.5369 11.6482ZM24.0524 14.7283V8.56704C22.8146 9.04407 21.9366 10.242 21.9334 11.6482C21.9366 13.0541 22.8146 14.2524 24.0524 14.7283ZM25.2349 6.43914C22.358 6.44014 20.0272 8.77137 20.0269 11.6482C20.0272 14.5247 22.358 16.8555 25.2349 16.8559C28.1117 16.8555 30.4433 14.5247 30.4439 11.6482C30.4433 8.77137 28.1117 6.44014 25.2349 6.43914ZM25.2221 17.3479C22.0739 17.3626 19.483 14.8124 19.483 11.7076C19.483 8.31483 22.0739 5.9679 25.2221 5.96851H26.6977C29.8082 5.9679 32.6475 8.31332 32.6475 11.7076C32.6475 14.8109 29.8082 17.3479 26.6977 17.3479H25.2221Z" fill="#254D98"/>
    <path d="M43.4688 27.7589V27.5177H8.51471C8.18099 27.5176 7.88106 27.3832 7.66214 27.1645C7.4436 26.9456 7.30908 26.6457 7.30896 26.312V5.68805C7.30908 5.35433 7.4436 5.0544 7.66214 4.83547C7.88106 4.61692 8.18099 4.48243 8.51471 4.4823H43.4688C43.8026 4.48243 44.1026 4.61692 44.3215 4.83547C44.5398 5.0544 44.6746 5.35433 44.6746 5.68805V26.312C44.6746 26.6457 44.5398 26.9456 44.3215 27.1645C44.1026 27.3832 43.8026 27.5176 43.4688 27.5177V27.7589V28C44.4013 27.9999 45.1569 27.2444 45.1569 26.312V5.68805C45.1569 4.75573 44.4013 4.00013 43.4688 4H8.51471C7.58239 4.00013 6.82679 4.75573 6.82666 5.68805V26.312C6.82679 27.2444 7.58239 27.9999 8.51471 28H43.4688V27.7589Z" fill="#26489A"/>
</svg>
