<svg width="52" height="32" viewBox="0 0 52 32" fill="none" xmlns="http://www.w3.org/2000/svg">
    <rect width="52" height="32" rx="2" fill="white"/>
    <path fill-rule="evenodd" clip-rule="evenodd" d="M37.0211 15.8013H34.3779C34.084 15.8013 33.8448 15.567 33.8448 15.2738C33.8448 14.9806 34.084 14.7225 34.3779 14.7225H38.4019V12.7375H34.3779C32.9734 12.7375 31.8307 13.8825 31.8307 15.2835C31.8307 16.6844 32.9734 17.8294 34.3779 17.8294H36.9852C37.2791 17.8294 37.5183 18.0627 37.5183 18.3559C37.5183 18.6491 37.2791 18.8651 36.9852 18.8651H31.3943C30.9196 19.7713 30.4581 20.548 29.5211 20.9364H37.0211C38.4019 20.9165 39.5315 19.7479 39.5315 18.3593C39.5315 16.9707 38.4019 15.8212 37.0211 15.8013Z" fill="#5F6360"/>
    <path fill-rule="evenodd" clip-rule="evenodd" d="M26.8888 12.7375C24.6486 12.7375 22.824 14.573 22.824 16.8283C22.824 16.8549 22.824 16.9146 22.824 16.9146V25.3379H24.8521V20.9364H26.8845C29.1248 20.9364 30.9429 19.0765 30.9429 16.8211C30.9429 14.5658 29.129 12.7375 26.8888 12.7375ZM26.8888 18.8651H24.8522V16.8211C24.8522 15.679 25.7615 14.7497 26.8888 14.7497C28.0162 14.7497 28.9333 15.679 28.9333 16.8211C28.9333 17.9633 28.0162 18.8651 26.8888 18.8651Z" fill="#5F6360"/>
    <path d="M20.2054 11.4425C21.0759 11.4425 21.7883 12.155 21.7885 13.0255L21.7806 18.8654H16.4027C15.5789 18.8652 14.8643 18.4766 14.5111 17.7863H20.4935V16.796C20.4935 14.5444 18.6456 12.714 16.3939 12.714C14.4797 12.7142 12.8695 14.0399 12.4301 15.8204C12.4301 15.8204 12.3109 16.4171 12.3109 16.8058C12.3109 17.189 12.4335 17.7683 12.4369 17.7843C12.8731 19.5694 14.4852 20.9365 16.4027 20.9366H21.764C21.638 21.6701 20.9866 22.2306 20.2054 22.2306H12.5834C11.7128 22.2306 11.0004 21.4967 11.0004 20.6261V13.004C11.0005 12.1335 11.7129 11.4425 12.5834 11.4425H20.2054ZM16.3939 14.6515C17.2146 14.6515 17.9288 15.1538 18.2836 15.8009H14.5052C14.8599 15.1539 15.5735 14.6517 16.3939 14.6515ZM16.3929 5.59583C18.3 5.59583 19.8459 7.10377 19.8461 8.96399V9.90735C19.8461 10.0284 19.7397 10.1486 19.6156 10.1486H18.3451C18.221 10.1485 18.1205 10.0284 18.1205 9.90735V8.96399C18.1204 8.03512 17.3462 7.27942 16.3939 7.27942C15.4418 7.27965 14.6685 8.03527 14.6683 8.96399V9.90735C14.6683 10.0284 14.559 10.1486 14.4349 10.1486H13.1654C13.0413 10.1486 12.9418 10.0284 12.9418 9.90735V8.89563C12.9418 8.88773 12.9419 8.87987 12.9427 8.87219C12.9929 7.05468 14.5177 5.59605 16.3929 5.59583Z" fill="#B41C6A"/>
    <path d="M43.4868 24.0594C43.6629 24.0594 43.8213 24.1431 43.8774 24.2859L43.9204 24.0867H44.1753L43.9565 25.3748C43.875 25.8519 43.5197 25.9998 43.1958 25.9998C42.8082 25.9997 42.5945 25.8125 42.6479 25.5106H42.9028C42.8851 25.6831 43.0178 25.7527 43.2397 25.7527C43.4336 25.7527 43.6425 25.6443 43.6909 25.369L43.729 25.1541C43.6142 25.3148 43.405 25.3787 43.2495 25.3787C42.9281 25.3786 42.7036 25.1866 42.7036 24.8397C42.7038 24.3452 43.0711 24.0594 43.4868 24.0594ZM38.8003 24.0545C38.9939 24.0546 39.1371 24.0975 39.2544 24.2225L39.0757 24.3963C38.9941 24.3045 38.8891 24.2781 38.7641 24.2781C38.5906 24.2781 38.4683 24.3375 38.4683 24.4471C38.4683 24.5388 38.5676 24.5769 38.7153 24.5897C38.9448 24.6101 39.2383 24.6868 39.1772 25.0106C39.1339 25.2453 38.8992 25.3836 38.5727 25.3836C38.3687 25.3836 38.1721 25.3374 38.0395 25.1512L38.2104 24.9647C38.3048 25.0947 38.4707 25.1486 38.6186 25.1512C38.7435 25.1512 38.8914 25.1052 38.9145 24.9881C38.9375 24.876 38.8382 24.8322 38.6548 24.8143C38.4405 24.7939 38.2056 24.7146 38.2056 24.4774C38.2058 24.1637 38.5452 24.0545 38.8003 24.0545ZM31.7778 24.0574C32.1833 24.0575 32.4126 24.3024 32.2749 24.8201H31.2544C31.2443 24.9926 31.3796 25.1335 31.6089 25.1336C31.7364 25.1336 31.9047 25.0835 31.9966 24.9969L32.1401 25.1619C31.9846 25.3046 31.7548 25.3757 31.561 25.3758C31.1988 25.3758 30.9868 25.1586 30.9868 24.827C30.987 24.3858 31.3341 24.0574 31.7778 24.0574ZM36.6919 24.0574C37.0975 24.0574 37.3277 24.3023 37.1899 24.8201H36.1694C36.1593 24.9927 36.2943 25.1336 36.5239 25.1336C36.6514 25.1335 36.8198 25.0835 36.9116 24.9969L37.0542 25.1619C36.8986 25.3046 36.6689 25.3758 36.4751 25.3758C36.1129 25.3758 35.9009 25.1586 35.9009 24.827C35.9011 24.3859 36.2482 24.0575 36.6919 24.0574ZM27.7485 24.6082C27.6925 24.9321 27.8376 25.1168 28.1128 25.117C28.3959 25.117 28.6391 24.9485 28.6977 24.6092L28.8813 23.5682H29.1645L28.9809 24.6082C28.8891 25.1337 28.5444 25.3748 28.0776 25.3748C27.6822 25.3748 27.376 25.117 27.4653 24.6092L27.6489 23.5682H27.9321L27.7485 24.6082ZM29.7212 24.2869C29.8308 24.1394 30.0497 24.0615 30.2026 24.0613C30.5189 24.0613 30.7387 24.2463 30.7388 24.5906C30.7388 25.0777 30.3997 25.3707 29.9663 25.3709C29.7979 25.3709 29.6546 25.3083 29.5679 25.1502L29.519 25.3377H29.272L29.5854 23.5682H29.8481L29.7212 24.2869ZM39.7847 24.7606C39.7465 24.9748 39.8437 25.1229 40.063 25.1229C40.2695 25.1227 40.4454 24.9511 40.4809 24.742L40.5962 24.0867H40.8589L40.6362 25.3377H40.3999L40.4175 25.1561C40.2695 25.2964 40.1237 25.3631 39.9477 25.3631C39.6391 25.363 39.4557 25.1414 39.522 24.7615L39.6421 24.0867H39.9048L39.7847 24.7606ZM33.3696 24.0594C33.4919 24.0594 33.6019 24.1022 33.6606 24.1658L33.5024 24.3963C33.4464 24.3454 33.3903 24.3192 33.2934 24.3192C33.1124 24.3192 32.934 24.4281 32.8931 24.66L32.7729 25.3377H32.5102L32.7319 24.0867H32.977L32.9643 24.2527C33.0867 24.092 33.2345 24.0594 33.3696 24.0594ZM34.2173 25.076L34.6987 24.0867H34.9263L35.0591 25.076L35.5386 24.0867H35.8315L35.1733 25.3377H34.8647L34.7397 24.5125L34.5386 24.9227L34.3188 25.3377H34.0132L33.7915 24.0867H34.0864L34.2173 25.076ZM37.687 25.3377H37.4243L37.647 24.0867H37.9097L37.687 25.3377ZM41.9614 24.0672C42.2674 24.0673 42.4668 24.2806 42.3979 24.6658L42.2778 25.3377H42.0122L42.1323 24.6678C42.1704 24.4511 42.0965 24.3075 41.8569 24.3074C41.6478 24.3074 41.4717 24.4758 41.436 24.6824L41.3208 25.3377H41.0581L41.2798 24.0867H41.52L41.5024 24.2693C41.6479 24.1342 41.7982 24.0672 41.9614 24.0672ZM43.4643 24.2996C43.2067 24.2996 42.9771 24.4903 42.977 24.7889C42.977 25.003 43.1172 25.1336 43.3188 25.1336C43.8618 25.1335 44.0072 24.3 43.4643 24.2996ZM30.1548 24.3065C29.9099 24.3065 29.6653 24.5031 29.6499 24.7811C29.6397 24.9902 29.7748 25.1258 29.9712 25.1258C30.2185 25.1257 30.4578 24.934 30.4731 24.6434C30.4833 24.4318 30.346 24.3065 30.1548 24.3065ZM31.7417 24.3006C31.5505 24.3007 31.3749 24.3886 31.2983 24.6043H32.061C32.0814 24.3885 31.9534 24.3006 31.7417 24.3006ZM36.6567 24.3006C36.4654 24.3006 36.2889 24.3885 36.2124 24.6043H36.9751C36.9954 24.3887 36.8683 24.3007 36.6567 24.3006ZM37.8784 23.5565C37.9472 23.5565 38.0111 23.6051 38.0112 23.6893C38.0112 23.8142 37.917 23.8806 37.8149 23.8807C37.7436 23.8807 37.6774 23.8349 37.6772 23.7459C37.6772 23.6185 37.7841 23.5565 37.8784 23.5565ZM28.2456 23.0594C28.3195 23.0594 28.3765 23.1032 28.3765 23.1873C28.3762 23.3069 28.279 23.3708 28.1899 23.3709C28.1185 23.3709 28.0522 23.3297 28.0522 23.243C28.0523 23.1181 28.1539 23.0595 28.2456 23.0594ZM28.8608 23.0594C28.9296 23.0595 28.9906 23.1053 28.9907 23.1893C28.9907 23.3066 28.8862 23.3709 28.8071 23.3709C28.7331 23.3709 28.6645 23.3293 28.6645 23.2401C28.6648 23.1179 28.7691 23.0594 28.8608 23.0594Z" fill="#5F6360"/>
</svg>
