<svg width="52" height="32" viewBox="0 0 52 32" fill="none" xmlns="http://www.w3.org/2000/svg">
    <rect width="52" height="32" rx="2" fill="white"/>
    <path fill-rule="evenodd" clip-rule="evenodd" d="M16.5566 23.4089H20.2423V17.2891H16.5566V23.4089Z" fill="#0A0B09"/>
    <mask id="mask0_3530_19795" style="mask-type:luminance" maskUnits="userSpaceOnUse" x="14" y="6" width="23" height="21">
        <path fill-rule="evenodd" clip-rule="evenodd" d="M14 6.00128H37V26.0528H14V6.00128Z" fill="white"/>
    </mask>
    <g mask="url(#mask0_3530_19795)">
        <path fill-rule="evenodd" clip-rule="evenodd" d="M20.5204 14.2294C20.5204 15.3815 19.5863 16.3161 18.4342 16.3161C17.2821 16.3161 16.3479 15.3815 16.3479 14.2294C16.3479 13.0773 17.2821 12.1431 18.4342 12.1431C19.5863 12.1431 20.5204 13.0773 20.5204 14.2294Z" fill="#0A0B09"/>
        <path fill-rule="evenodd" clip-rule="evenodd" d="M26.9732 7.33319C29.5359 7.33319 31.6718 8.02753 33.1499 9.34117C34.8209 10.8261 35.6681 13.076 35.6681 16.0282C35.6681 21.879 32.824 24.7232 26.9732 24.7232C26.5184 24.7232 16.5012 24.7232 15.3319 24.7232C15.3319 23.53 15.3319 8.52631 15.3319 7.33319C16.5012 7.33319 26.5184 7.33319 26.9732 7.33319ZM27.2233 6.00128H14V26.0551H27.2233V26.0513C30.1118 26.0119 32.4 25.2944 34.0238 23.9129C35.9987 22.2327 37 19.5799 37 16.0282C37 14.3304 36.7366 12.8076 36.2172 11.5019C35.7203 10.253 34.986 9.19101 34.0347 8.34555C32.3592 6.85656 30.0073 6.05144 27.2233 6.0057C27.2233 6.00566 27.2233 6.00128 27.2233 6.00128Z" fill="#0A0B09"/>
    </g>
    <path fill-rule="evenodd" clip-rule="evenodd" d="M26.6093 23.4158H21.9343V8.95465H26.6093H26.4206C30.3194 8.95465 34.4693 10.4933 34.4693 16.2042C34.4693 22.2417 30.3194 23.4158 26.4206 23.4158H26.6093Z" fill="#B9215E"/>
    <path fill-rule="evenodd" clip-rule="evenodd" d="M21.8302 13.2775V15.5774H22.3559C22.5524 15.5774 22.6943 15.5663 22.7816 15.5442C22.8957 15.5158 22.9905 15.4676 23.0658 15.3997C23.1411 15.3318 23.2026 15.2201 23.2501 15.0646C23.2977 14.9091 23.3215 14.6971 23.3215 14.4286C23.3215 14.1602 23.2977 13.9541 23.2501 13.8104C23.2026 13.6667 23.136 13.5546 23.0503 13.4741C22.9647 13.3935 22.8561 13.3391 22.7245 13.3106C22.6262 13.2885 22.4335 13.2775 22.1466 13.2775H21.8302ZM21.1285 12.6876H22.4121C22.7016 12.6876 22.9222 12.7098 23.0741 12.7541C23.2781 12.8142 23.4529 12.921 23.5984 13.0745C23.7439 13.228 23.8546 13.4159 23.9306 13.6382C24.0065 13.8605 24.0445 14.1347 24.0445 14.4606C24.0445 14.7471 24.0088 14.9939 23.9377 15.2012C23.8507 15.4544 23.7265 15.6593 23.5652 15.8159C23.4434 15.9346 23.2789 16.0272 23.0717 16.0936C22.9166 16.1427 22.7095 16.1672 22.4501 16.1672H21.1285V12.6876Z" fill="#FFFFFE"/>
    <path fill-rule="evenodd" clip-rule="evenodd" d="M22.4121 12.7828C22.6912 12.7828 22.9049 12.8038 23.0474 12.8454C23.2339 12.9004 23.3962 12.9995 23.5294 13.14C23.6647 13.2828 23.7694 13.4607 23.8406 13.669C23.9127 13.8804 23.9493 14.1468 23.9493 14.4607C23.9493 14.7352 23.9151 14.9739 23.8477 15.1703C23.766 15.408 23.6487 15.6023 23.4989 15.7477C23.3882 15.8556 23.2347 15.9415 23.0427 16.0031C22.898 16.0489 22.6985 16.0721 22.4501 16.0721C22.4501 16.0721 21.3876 16.0721 21.2237 16.0721C21.2237 15.8972 21.2237 12.9577 21.2237 12.7828C21.3868 12.7828 22.4121 12.7828 22.4121 12.7828ZM21.0334 12.5925V16.2624H22.4501C22.718 16.2624 22.9368 16.2361 23.1004 16.1844C23.3211 16.1136 23.4998 16.0126 23.6317 15.8841C23.8029 15.7178 23.9362 15.4984 24.0277 15.2321C24.102 15.0158 24.1396 14.7562 24.1396 14.4607C24.1396 14.1258 24.0996 13.8387 24.0206 13.6075C23.9406 13.3731 23.8218 13.1718 23.6675 13.0091C23.5109 12.844 23.3203 12.7275 23.101 12.6629C22.9387 12.6155 22.7134 12.5925 22.4121 12.5925H21.0334Z" fill="#FFFFFE"/>
    <path fill-rule="evenodd" clip-rule="evenodd" d="M22.1465 13.3726C22.4934 13.3726 22.641 13.3894 22.7036 13.4035C22.8182 13.4283 22.9127 13.4753 22.9852 13.5434C23.0587 13.6126 23.1175 13.7125 23.1598 13.8403C23.2039 13.9737 23.2263 14.1716 23.2263 14.4287C23.2263 14.6864 23.2037 14.891 23.1591 15.0368C23.1169 15.1748 23.0641 15.2732 23.0021 15.3291C22.9388 15.3861 22.8569 15.4275 22.7586 15.4519C22.679 15.4721 22.5437 15.4823 22.3558 15.4823C22.3558 15.4823 22.053 15.4823 21.9253 15.4823C21.9253 15.315 21.9253 13.5399 21.9253 13.3726C22.0184 13.3726 22.1465 13.3726 22.1465 13.3726ZM21.7351 13.1824V15.6725H22.3559C22.5623 15.6725 22.7093 15.6607 22.805 15.6365C22.9335 15.6045 23.0428 15.5486 23.1295 15.4704C23.2187 15.39 23.288 15.2664 23.3411 15.0924C23.392 14.9263 23.4167 14.7092 23.4167 14.4287C23.4167 14.1474 23.3917 13.9354 23.3405 13.7806C23.2881 13.6224 23.2124 13.4959 23.1156 13.4048C23.0176 13.3127 22.8928 13.2497 22.7447 13.2176C22.6391 13.1939 22.4432 13.1824 22.1466 13.1824H21.7351Z" fill="#FFFFFE"/>
    <path fill-rule="evenodd" clip-rule="evenodd" d="M24.8384 16.1672V12.6876H27.4142V13.2775H25.54V14.0481H27.2834V14.6379H25.54V15.5774H27.4808V16.1672H24.8384Z" fill="#FFFFFE"/>
    <path fill-rule="evenodd" clip-rule="evenodd" d="M27.3191 12.7828C27.3191 12.8909 27.3191 13.0743 27.3191 13.1824C27.1476 13.1824 25.4449 13.1824 25.4449 13.1824V14.1433C25.4449 14.1433 27.0182 14.1433 27.1882 14.1433C27.1882 14.2513 27.1882 14.4347 27.1882 14.5428C27.0182 14.5428 25.4449 14.5428 25.4449 14.5428V15.6725C25.4449 15.6725 27.2136 15.6725 27.3857 15.6725C27.3857 15.7807 27.3857 15.964 27.3857 16.0721C27.2154 16.0721 25.1037 16.0721 24.9335 16.0721C24.9335 15.8972 24.9335 12.9577 24.9335 12.7828C25.1032 12.7828 27.1493 12.7828 27.3191 12.7828ZM24.7433 12.5925V16.2624H27.576V15.4823C27.576 15.4823 25.8073 15.4823 25.6352 15.4823C25.6352 15.3459 25.6352 14.8694 25.6352 14.7331C25.8052 14.7331 27.3786 14.7331 27.3786 14.7331V13.953C27.3786 13.953 25.8052 13.953 25.6352 13.953C25.6352 13.8274 25.6352 13.4982 25.6352 13.3726C25.8066 13.3726 27.5094 13.3726 27.5094 13.3726V12.5925H24.7433Z" fill="#FFFFFE"/>
    <path fill-rule="evenodd" clip-rule="evenodd" d="M30.1166 14.7877L29.637 13.4986L29.167 14.7877H30.1166ZM31.41 16.1672H30.6456L30.342 15.3776H28.9519L28.6639 16.1672H27.9185L29.2706 12.6876H30.0185L31.41 16.1672Z" fill="#FFFFFE"/>
    <path fill-rule="evenodd" clip-rule="evenodd" d="M29.9541 12.7828C29.9985 12.8939 31.1745 15.8347 31.2695 16.0721C31.1019 16.0721 30.7983 16.0721 30.711 16.0721C30.671 15.9683 30.4074 15.2825 30.4074 15.2825H28.8853C28.8853 15.2825 28.636 15.9661 28.5973 16.0721C28.5095 16.0721 28.2213 16.0721 28.0575 16.0721C28.1492 15.8362 29.2919 12.8955 29.3358 12.7828C29.434 12.7828 29.8567 12.7828 29.9541 12.7828ZM29.2056 12.5925L27.7795 16.2624H28.7305C28.7305 16.2624 28.9799 15.5788 29.0185 15.4728C29.1333 15.4728 30.164 15.4728 30.2768 15.4728C30.3167 15.5767 30.5804 16.2624 30.5804 16.2624H31.5506L30.0829 12.5925H29.2056Z" fill="#FFFFFE"/>
    <path fill-rule="evenodd" clip-rule="evenodd" d="M29.6378 13.7739C29.742 14.0542 29.9184 14.528 29.9797 14.6927C29.8126 14.6927 29.4689 14.6927 29.3028 14.6927C29.3626 14.5286 29.5354 14.0547 29.6378 13.7739ZM29.031 14.8829H30.2535L29.636 13.2234L29.031 14.8829Z" fill="#FFFFFE"/>
    <path fill-rule="evenodd" clip-rule="evenodd" d="M31.9969 16.1672V12.7162H32.6986V15.5774H34.4467V16.1672H31.9969Z" fill="#FFFFFE"/>
    <path fill-rule="evenodd" clip-rule="evenodd" d="M32.6034 12.8113C32.6034 12.9891 32.6034 15.6725 32.6034 15.6725C32.6034 15.6725 34.1814 15.6725 34.3516 15.6725C34.3516 15.7806 34.3516 15.964 34.3516 16.0721C34.1829 16.0721 32.2608 16.0721 32.0921 16.0721C32.0921 15.8973 32.0921 12.9861 32.0921 12.8113C32.212 12.8113 32.4835 12.8113 32.6034 12.8113ZM31.9019 12.621V16.2624H34.5419V15.4822C34.5419 15.4822 32.9639 15.4822 32.7938 15.4822C32.7938 15.3044 32.7938 12.621 32.7938 12.621H31.9019Z" fill="#FFFFFE"/>
</svg>
