<svg width="52" height="32" viewBox="0 0 52 32" fill="none" xmlns="http://www.w3.org/2000/svg">
    <rect width="52" height="32" rx="2" fill="white"/>
    <path d="M44.1733 24.3555C44.1733 27.4666 41.6396 30 38.5282 30H7.81332V7.64448C7.81332 4.53338 10.347 2 13.4585 2H44.1733V24.3555Z" fill="white"/>
    <path d="M34.1721 18.6222H36.5058C36.5724 18.6222 36.7279 18.6 36.7947 18.6C37.2391 18.5111 37.6171 18.1111 37.6171 17.5555C37.6171 17.0222 37.2391 16.6222 36.7947 16.5111C36.7279 16.4888 36.5947 16.4888 36.5058 16.4888H34.1721V18.6222Z" fill="url(#paint0_linear_3530_19752)"/>
    <path d="M36.2391 3.88892C34.0165 3.88892 32.1941 5.68894 32.1941 7.93333V12.1334H37.9059C38.0393 12.1334 38.1948 12.1334 38.3059 12.1555C39.595 12.2221 40.5507 12.8889 40.5507 14.0445C40.5507 14.9555 39.9062 15.7333 38.706 15.8889V15.9332C40.0172 16.0221 41.0174 16.7555 41.0174 17.8889C41.0174 19.1111 39.9062 19.911 38.4393 19.911H32.1718V28.1334H38.1059C40.3284 28.1334 42.1508 26.3333 42.1508 24.0888V3.88892H36.2391Z" fill="url(#paint1_linear_3530_19752)"/>
    <path d="M37.328 14.311C37.328 13.7778 36.9502 13.4222 36.5058 13.3555C36.4613 13.3555 36.3501 13.3333 36.2835 13.3333H34.1721V15.2889H36.2835C36.3501 15.2889 36.4835 15.2889 36.5058 15.2666C36.9502 15.2 37.328 14.8444 37.328 14.311Z" fill="url(#paint2_linear_3530_19752)"/>
    <path d="M13.8808 3.88892C11.6583 3.88892 9.8359 5.68894 9.8359 7.93333V17.9111C10.9693 18.4666 12.1472 18.8222 13.3252 18.8222C14.7253 18.8222 15.4809 17.9778 15.4809 16.8223V12.1111H18.9481V16.8C18.9481 18.6221 17.8146 20.1111 13.9697 20.1111C11.636 20.1111 9.8136 19.6 9.8136 19.6V28.1111H15.7477C17.9702 28.1111 19.7926 26.311 19.7926 24.0667V3.88892H13.8808Z" fill="url(#paint3_linear_3530_19752)"/>
    <path d="M25.0598 3.88892C22.8373 3.88892 21.0149 5.68894 21.0149 7.93333V13.2222C22.0372 12.3555 23.8152 11.7999 26.6822 11.9333C28.2157 12 29.8603 12.4222 29.8603 12.4222V14.1334C29.0381 13.7112 28.0602 13.3333 26.7933 13.2444C24.6152 13.0889 23.304 14.1555 23.304 16.0221C23.304 17.9111 24.6152 18.9777 26.7933 18.7999C28.0602 18.711 29.0381 18.3111 29.8603 17.9111V19.6222C29.8603 19.6222 28.2379 20.0444 26.6822 20.1111C23.8152 20.2444 22.0372 19.6888 21.0149 18.8222V28.1555H26.9489C29.1714 28.1555 30.9938 26.3555 30.9938 24.1111V3.88892H25.0598Z" fill="url(#paint4_linear_3530_19752)"/>
    <defs>
        <linearGradient id="paint0_linear_3530_19752" x1="32.1905" y1="20.6506" x2="42.1778" y2="20.6506" gradientUnits="userSpaceOnUse">
            <stop stop-color="#007940"/>
            <stop offset="0.23" stop-color="#00873F"/>
            <stop offset="0.74" stop-color="#40A737"/>
            <stop offset="1" stop-color="#5CB531"/>
        </linearGradient>
        <linearGradient id="paint1_linear_3530_19752" x1="32.19" y1="28.1347" x2="42.1781" y2="28.1347" gradientUnits="userSpaceOnUse">
            <stop stop-color="#007940"/>
            <stop offset="0.23" stop-color="#00873F"/>
            <stop offset="0.74" stop-color="#40A737"/>
            <stop offset="1" stop-color="#5CB531"/>
        </linearGradient>
        <linearGradient id="paint2_linear_3530_19752" x1="32.1902" y1="17.4029" x2="42.1779" y2="17.4029" gradientUnits="userSpaceOnUse">
            <stop stop-color="#007940"/>
            <stop offset="0.23" stop-color="#00873F"/>
            <stop offset="0.74" stop-color="#40A737"/>
            <stop offset="1" stop-color="#5CB531"/>
        </linearGradient>
        <linearGradient id="paint3_linear_3530_19752" x1="9.83114" y1="28.3102" x2="19.9731" y2="28.3102" gradientUnits="userSpaceOnUse">
            <stop stop-color="#1F286F"/>
            <stop offset="0.48" stop-color="#004E94"/>
            <stop offset="0.83" stop-color="#0066B1"/>
            <stop offset="1" stop-color="#006FBC"/>
        </linearGradient>
        <linearGradient id="paint4_linear_3530_19752" x1="20.9574" y1="27.978" x2="30.8075" y2="27.978" gradientUnits="userSpaceOnUse">
            <stop stop-color="#6C2C2F"/>
            <stop offset="0.17" stop-color="#882730"/>
            <stop offset="0.57" stop-color="#BE1833"/>
            <stop offset="0.86" stop-color="#DC0436"/>
            <stop offset="1" stop-color="#E60039"/>
        </linearGradient>
    </defs>
</svg>
