<svg width="52" height="32" viewBox="0 0 52 32" fill="none" xmlns="http://www.w3.org/2000/svg">
    <rect width="52" height="32" rx="2" fill="white"/>
    <path d="M4 8.66667C4 6.08934 6.08934 4 8.66667 4H43.3333C45.9107 4 48 6.08934 48 8.66667V23.3333C48 25.9107 45.9107 28 43.3333 28H8.66667C6.08934 28 4 25.9107 4 23.3333V8.66667Z" fill="#FFB3C7"/>
    <path d="M43.8871 18.3208C43.3114 18.3208 42.8448 18.7917 42.8448 19.3726C42.8448 19.9534 43.3114 20.4244 43.8871 20.4244C44.4627 20.4244 44.9295 19.9535 44.9295 19.3726C44.9295 18.7917 44.4628 18.3208 43.8871 18.3208ZM40.4577 17.5077C40.4577 16.7124 39.7841 16.0678 38.953 16.0678C38.122 16.0678 37.4482 16.7124 37.4482 17.5077C37.4482 18.303 38.1219 18.9477 38.953 18.9477C39.7842 18.9477 40.4577 18.303 40.4577 17.5077ZM40.4633 14.7091H42.124V20.3061H40.4633V19.9483C39.9942 20.2712 39.4278 20.461 38.817 20.461C37.2007 20.461 35.8902 19.1388 35.8902 17.5076C35.8902 15.8765 37.2007 14.5543 38.817 14.5543C39.4278 14.5543 39.9942 14.7441 40.4633 15.0671V14.7091ZM27.1734 15.4381V14.7091H25.4731V20.306H27.1772V17.6929C27.1772 16.8113 28.1241 16.3374 28.7812 16.3374C28.7879 16.3374 28.7942 16.3381 28.801 16.3382V14.7096C28.1266 14.7096 27.5063 15.0008 27.1734 15.4381ZM22.938 17.5077C22.938 16.7124 22.2643 16.0678 21.4332 16.0678C20.6022 16.0678 19.9284 16.7124 19.9284 17.5077C19.9284 18.303 20.6022 18.9477 21.4332 18.9477C22.2643 18.9477 22.938 18.303 22.938 17.5077ZM22.9435 14.7091H24.6043V20.3061H22.9435V19.9484C22.4744 20.2712 21.908 20.461 21.2973 20.461C19.6809 20.461 18.3704 19.1388 18.3704 17.5076C18.3704 15.8765 19.6809 14.5544 21.2973 14.5544C21.9081 14.5544 22.4744 14.7442 22.9435 15.0671V14.7091ZM32.9393 14.5585C32.2759 14.5585 31.6481 14.7664 31.2283 15.3397V14.7094H29.5748V20.3061H31.2487V17.3649C31.2487 16.5137 31.8143 16.097 32.4953 16.097C33.2252 16.097 33.6448 16.5369 33.6448 17.3533V20.3061H35.3035V16.7469C35.3035 15.4444 34.2772 14.5585 32.9393 14.5585ZM15.9514 20.3061H17.6896V12.2149H15.9514V20.3061ZM8.31586 20.3083H10.1564V12.2134H8.31586V20.3083ZM14.7535 12.2134C14.7535 13.9659 14.0767 15.5961 12.8707 16.8079L15.4149 20.3086H13.1416L10.3766 16.5041L11.0902 15.9648C12.2736 15.0703 12.9524 13.703 12.9524 12.2134L14.7535 12.2134Z" fill="#0A0B09"/>
</svg>
