<svg width="52" height="32" viewBox="0 0 52 32" fill="none" xmlns="http://www.w3.org/2000/svg">
    <rect width="52" height="32" rx="2" fill="white"/>
    <path fill-rule="evenodd" clip-rule="evenodd" d="M43.7428 22.5216V22.99H43.665V22.6354L43.5436 22.9398H43.4596L43.3382 22.6354V22.99H43.2573V22.5216H43.3693L43.5 22.8562L43.6308 22.5216H43.7428ZM43.0232 22.6019V22.99H42.9547V22.6019H42.8084V22.5216H43.1788V22.6019H43.0232Z" fill="#F79E1B"/>
    <rect x="20.7137" y="7.35223" width="10.8054" height="17.2954" fill="#FF5F00"/>
    <path d="M21.8713 15.9973C21.8686 12.6228 23.4493 9.43457 26.1579 7.35113C21.5564 3.80714 14.9484 4.32335 10.9779 8.53699C7.00737 12.7506 7.00737 19.247 10.9779 23.4606C14.9484 27.6743 21.5564 28.1905 26.1579 24.6465C23.4485 22.5624 21.8677 19.3728 21.8713 15.9973Z" fill="#EB001B"/>
    <path d="M44.3825 16.0015C44.3824 20.2126 41.9289 24.054 38.0639 25.8942C34.1989 27.7344 29.601 27.2504 26.2229 24.6477C28.9304 22.5625 30.5112 19.3746 30.5112 16C30.5112 12.6254 28.9304 9.43753 26.2229 7.35232C29.601 4.74965 34.1989 4.26563 38.0639 6.10584C41.9289 7.94605 44.3824 11.7874 44.3825 15.9985V16.0015Z" fill="#F79E1B"/>
</svg>
