<svg width="52" height="32" viewBox="0 0 52 32" fill="none" xmlns="http://www.w3.org/2000/svg">
    <rect width="52" height="32" rx="2" fill="white"/>
    <path fill-rule="evenodd" clip-rule="evenodd" d="M18.5356 22.1176H32.3134C33.8967 22.1176 33.9125 20.4348 33.7512 19.6041C33.6631 19.0457 32.7142 19.0504 32.6098 19.6041V20.2523C32.6098 20.5484 32.3673 20.7909 32.0711 20.7909H18.7778C18.4815 20.7909 18.2392 20.5484 18.2392 20.2523V19.6041C18.1347 19.0504 17.1859 19.0457 17.0978 19.6041C16.9367 20.4348 16.9522 22.1176 18.5356 22.1176ZM19.7309 6H31.169C31.9202 6 32.5346 6.65031 32.5346 7.44522V8.13595C32.5346 9.11244 31.2117 9.10873 31.2117 8.14254V7.76522C31.2117 7.52522 31.0154 7.32893 30.7753 7.32893H20.0623C19.8223 7.32893 19.626 7.52522 19.626 7.76522V8.13485C19.626 9.10598 18.3653 9.09911 18.3653 8.15588V7.44522C18.3653 6.65031 18.9798 6 19.7309 6Z" fill="#1766AC"/>
    <path fill-rule="evenodd" clip-rule="evenodd" d="M32.2647 13.9394C33.0052 14.2878 33.5164 15.0068 33.5164 15.8324C33.5164 16.9964 32.5002 17.9487 31.2579 17.9487H27.7762C27.4506 17.9487 27.1841 17.699 27.1841 17.3939V10.7696C27.1841 10.4502 27.4458 10.1886 27.7658 10.1886H30.6657C31.8864 10.1886 32.8852 11.1864 32.8852 12.4058C32.8852 12.9995 32.6484 13.5404 32.2647 13.9394ZM29.6662 13.3999H30.7716V13.3877C31.2749 13.3104 31.6636 12.8728 31.6636 12.3487C31.6636 11.7705 31.1905 11.2973 30.6124 11.2973H28.3857V16.7943H31.2094C31.8065 16.7943 32.295 16.3058 32.295 15.7087C32.295 15.1115 31.8065 14.623 31.2094 14.623H30.7716V14.6204H29.6662C29.3305 14.6204 29.0559 14.3459 29.0559 14.0102C29.0559 13.6746 29.3305 13.3999 29.6662 13.3999Z" fill="#383536"/>
    <path fill-rule="evenodd" clip-rule="evenodd" d="M20.9197 24.1513C20.9197 24.0482 21.0033 23.9646 21.1064 23.9646C21.2094 23.9646 21.2932 24.0482 21.2932 24.1513V25.1613H21.2923C21.2923 25.3921 21.1979 25.6019 21.046 25.7537C20.8947 25.9051 20.6853 25.999 20.4547 25.9991V25.9999H20.454V25.9991C20.2232 25.9991 20.0134 25.9048 19.8615 25.7528C19.7102 25.6014 19.6163 25.3921 19.6162 25.1616H19.6154V24.1513C19.6154 24.0482 19.6991 23.9646 19.8022 23.9646C19.9053 23.9646 19.9888 24.0482 19.9888 24.1513V25.1616H19.9881C19.9881 25.289 20.0408 25.4054 20.1256 25.4902C20.21 25.5745 20.3263 25.6271 20.454 25.6271V25.6265H20.4547V25.6271C20.5822 25.6271 20.6988 25.5745 20.7835 25.4897C20.8679 25.4053 20.9204 25.289 20.9204 25.1613H20.9197V24.1513Z" fill="#383536"/>
    <path fill-rule="evenodd" clip-rule="evenodd" d="M22.6841 25.6265C22.7872 25.6265 22.8708 25.7101 22.8708 25.8132C22.8708 25.9163 22.7872 26 22.6841 26H22.1685V25.9992C21.9753 25.9992 21.7997 25.9201 21.6726 25.7931C21.5461 25.6664 21.4675 25.4914 21.4674 25.2983H21.4667V24.1513C21.4667 24.0482 21.5502 23.9645 21.6533 23.9645C21.7564 23.9645 21.84 24.0482 21.84 24.1513V25.2983H21.8393C21.8393 25.3882 21.8766 25.4704 21.9366 25.5304C21.9963 25.59 22.0784 25.6272 22.1685 25.6272V25.6265H22.6841Z" fill="#383536"/>
    <path fill-rule="evenodd" clip-rule="evenodd" d="M26.6309 17.287C26.6717 17.6706 26.3937 18.0148 26.01 18.0555C25.6264 18.0963 25.2822 17.8184 25.2415 17.4346L24.669 12.1667L22.6412 17.3176L22.6392 17.3225L22.639 17.3231L22.6334 17.3367L22.6289 17.3475L22.6278 17.3501L22.623 17.3608L22.6199 17.3673L22.6151 17.3773L22.6128 17.382L22.6074 17.3926L22.6055 17.3963C22.5681 17.4668 22.52 17.5288 22.4638 17.5809L22.4617 17.5827L22.4513 17.5921C22.4147 17.6246 22.3743 17.6532 22.3304 17.6778L22.3274 17.6794L22.3142 17.6866L22.3137 17.6869L22.3014 17.6932L22.2958 17.6961L22.288 17.6998L22.2796 17.7036L22.2723 17.7071L22.2636 17.7108L22.2561 17.7139L22.2489 17.717L22.2425 17.7194L22.2388 17.7209L22.2328 17.7231L22.2236 17.7266L22.2183 17.7284C22.1506 17.752 22.0818 17.7647 22.0135 17.7671L22.0052 17.7674L21.9953 17.7675H21.9809L21.9713 17.7674L21.9625 17.7671C21.8862 17.7644 21.8089 17.7488 21.7337 17.7194L21.7244 17.7157L21.7221 17.7146L21.7127 17.7109L21.7036 17.7069L21.6964 17.7035L21.6885 17.6999L21.6801 17.6959L21.6753 17.6934L21.6625 17.687L21.6613 17.6862L21.6504 17.6803L21.6443 17.677C21.6059 17.6554 21.5703 17.6305 21.5375 17.6029L21.5348 17.6005C21.527 17.5938 21.5193 17.5872 21.5117 17.5802L21.5113 17.5796C21.5054 17.5741 21.4995 17.5685 21.4939 17.5629C21.4882 17.5571 21.4825 17.5513 21.477 17.5454L21.4766 17.5449C21.4695 17.5373 21.4628 17.5297 21.4561 17.5218L21.4537 17.5192C21.4261 17.4863 21.4014 17.4507 21.3798 17.4123L21.3764 17.4063L21.3703 17.3953L21.3698 17.3939L21.3632 17.3814L21.3608 17.3765L21.3568 17.3682L21.3531 17.3603L21.3498 17.353L21.3458 17.3439L21.3419 17.3347L21.341 17.3323L21.3372 17.323L19.3072 12.1667L18.7347 17.4346C18.6939 17.8184 18.3498 18.0963 17.9662 18.0555C17.5824 18.0148 17.3045 17.6706 17.3453 17.287L18.0202 11.0763L18.0205 11.0746L18.0208 11.072L18.0205 11.0719C18.0286 10.9996 18.0438 10.9275 18.0658 10.8569C18.0871 10.7883 18.1156 10.7207 18.1508 10.6547C18.3232 10.331 18.6403 10.1039 19.0187 10.0515L19.0201 10.0512C19.0327 10.0496 19.0455 10.0482 19.0581 10.0471C19.1174 10.0409 19.1764 10.0392 19.2344 10.0419L19.2371 10.042V10.0419C19.3126 10.0455 19.3832 10.055 19.4484 10.0701C19.8093 10.1543 20.116 10.4055 20.2603 10.7721L21.9882 15.1607L23.7159 10.7721C23.8602 10.4055 24.1669 10.1543 24.5278 10.0701C24.5928 10.055 24.6635 10.0455 24.7391 10.0419V10.042L24.7419 10.0419C24.8 10.0392 24.8591 10.0409 24.9185 10.0471C24.931 10.0482 24.9435 10.0496 24.9561 10.0512L24.9575 10.0515C25.3359 10.1039 25.6532 10.331 25.8256 10.6547C25.8606 10.7207 25.8892 10.7883 25.9104 10.8569C25.9324 10.9275 25.9476 10.9994 25.9557 11.0719L25.9555 11.072L25.9557 11.0746L25.956 11.0763L26.6309 17.287Z" fill="#383536"/>
    <path fill-rule="evenodd" clip-rule="evenodd" d="M19.5461 25.7914C19.5581 25.8936 19.4849 25.9864 19.3828 25.9985C19.2803 26.0105 19.1876 25.9375 19.1755 25.8351L19.0155 24.4906L18.445 25.8134C18.4043 25.9081 18.2946 25.9518 18.2001 25.9111C18.1543 25.8916 18.1205 25.8557 18.1023 25.8134L17.5319 24.4906L17.3718 25.8351C17.3597 25.9375 17.2669 26.0105 17.1646 25.9985C17.0623 25.9864 16.9892 25.8936 17.0013 25.7914L17.187 24.2303C17.1991 24.1283 17.2612 24.0446 17.3502 23.9987C17.3619 23.9925 17.3741 23.9871 17.3865 23.9824C17.3913 23.9805 17.3959 23.9789 17.4009 23.9774C17.4167 23.9724 17.4351 23.9683 17.4559 23.9655V23.9657L17.4574 23.9655L17.459 23.9653C17.5565 23.9529 17.6526 23.9844 17.7198 24.0476C17.7333 24.0604 17.7461 24.0751 17.7579 24.0914C17.7658 24.1027 17.7733 24.1144 17.7796 24.1265C17.7836 24.1332 17.787 24.14 17.79 24.1472L18.2736 25.2685L18.7572 24.1472C18.7972 24.0547 18.8794 23.9915 18.9756 23.9703C18.994 23.9664 19.0124 23.9636 19.0304 23.9628C19.0443 23.9621 19.0581 23.9621 19.0711 23.9629L19.0724 23.9631C19.0769 23.9633 19.0814 23.9637 19.0861 23.9643L19.0876 23.9646L19.0875 23.9651L19.0883 23.9653C19.1881 23.9779 19.2731 24.034 19.3208 24.1144H19.3206C19.3307 24.1312 19.3388 24.149 19.3454 24.1676C19.3493 24.1793 19.3529 24.1914 19.3555 24.2042C19.3575 24.2121 19.359 24.2202 19.3599 24.2286L19.3602 24.2303L19.5461 25.7914Z" fill="#383536"/>
    <path fill-rule="evenodd" clip-rule="evenodd" d="M23.4997 25.8133C23.4997 25.9164 23.4161 25.9999 23.3131 25.9999C23.21 25.9999 23.1264 25.9164 23.1264 25.8133V24.3381H22.5951C22.492 24.3381 22.4084 24.2544 22.4084 24.1513C22.4084 24.0482 22.492 23.9646 22.5951 23.9646H24.031C24.1341 23.9646 24.2177 24.0482 24.2177 24.1513C24.2177 24.2544 24.1341 24.3381 24.031 24.3381H23.4997V25.8133Z" fill="#383536"/>
    <path fill-rule="evenodd" clip-rule="evenodd" d="M24.6643 25.8133C24.6643 25.9164 24.5808 25.9999 24.4777 25.9999C24.3746 25.9999 24.291 25.9164 24.291 25.8133V24.1513C24.291 24.0482 24.3746 23.9646 24.4777 23.9646C24.5808 23.9646 24.6643 24.0482 24.6643 24.1513V25.8133Z" fill="#383536"/>
    <path fill-rule="evenodd" clip-rule="evenodd" d="M28.4944 25.7905C28.5069 25.8928 28.4341 25.986 28.3317 25.9985C28.2294 26.011 28.1365 25.938 28.124 25.8357L28.0583 25.3085H27.4113C27.3082 25.3085 27.2246 25.2249 27.2246 25.1218C27.2246 25.0187 27.3082 24.935 27.4113 24.935H28.0118L27.9948 24.7981L27.9945 24.7966C27.9939 24.7922 27.9935 24.7878 27.9934 24.7835C27.9886 24.7522 27.9816 24.7203 27.9718 24.6881C27.9609 24.6521 27.948 24.619 27.9335 24.5897C27.8594 24.4417 27.7253 24.338 27.5559 24.338H27.5541V24.3373C27.5218 24.3373 27.4902 24.3413 27.4602 24.3486C27.432 24.3553 27.4041 24.3659 27.3768 24.3798C27.2335 24.4528 27.1376 24.6122 27.117 24.7959L27.0001 25.8335C26.9889 25.9359 26.8966 26.0098 26.7944 25.9985C26.6922 25.9872 26.6184 25.895 26.6297 25.7927L26.7464 24.7551C26.7809 24.4487 26.9509 24.1777 27.2077 24.0472C27.2581 24.0216 27.3133 24.001 27.3726 23.9868C27.4301 23.9728 27.4907 23.9655 27.5541 23.9654V23.9645H27.5559C27.8796 23.9645 28.131 24.1537 28.266 24.4234C28.2919 24.4753 28.3133 24.5282 28.3292 24.5817C28.3435 24.6294 28.3544 24.6803 28.3619 24.7337C28.3633 24.7395 28.3644 24.7453 28.3651 24.7512L28.3653 24.7527L28.4944 25.7905Z" fill="#383536"/>
    <path fill-rule="evenodd" clip-rule="evenodd" d="M29.066 25.8133C29.066 25.9164 28.9824 25.9999 28.8793 25.9999C28.7762 25.9999 28.6925 25.9164 28.6925 25.8133V24.2688C28.6925 24.2581 28.6933 24.2473 28.6951 24.2372C28.6976 24.2161 28.7027 24.1959 28.7098 24.1767L28.7101 24.1761L28.7098 24.176C28.7137 24.1657 28.719 24.1546 28.7252 24.1426L28.7256 24.1421L28.7252 24.1419C28.7564 24.0853 28.8071 24.0413 28.8711 24.0193C28.8796 24.0166 28.8881 24.0141 28.8968 24.0124C28.9034 24.0109 28.91 24.0095 28.9166 24.0086L28.9181 24.0083V24.0078C28.9306 24.006 28.9456 24.0051 28.9627 24.0056H28.9676C29.0441 24.0086 29.1156 24.044 29.1649 24.1069L30.1586 25.3741V24.1513C30.1586 24.0482 30.2423 23.9646 30.3454 23.9646C30.4485 23.9646 30.5321 24.0482 30.5321 24.1513V25.6883C30.5321 25.7695 30.4955 25.843 30.4346 25.8927C30.4231 25.9021 30.4103 25.9109 30.3966 25.9186C30.3891 25.9227 30.3813 25.9264 30.3733 25.93L30.3713 25.9308L30.3709 25.9309C30.3659 25.9333 30.3608 25.9355 30.3555 25.9372L30.3549 25.9375L30.3546 25.9371L30.3534 25.9375C30.2856 25.9609 30.2144 25.9559 30.1533 25.9262C30.1452 25.9228 30.1372 25.9187 30.1292 25.9137C30.1166 25.906 30.1041 25.8966 30.0922 25.8861C30.0848 25.8795 30.0768 25.8713 30.0684 25.8612L30.0623 25.8541L30.0619 25.8537L30.062 25.8535L30.0597 25.8506L29.066 24.5837V25.8133Z" fill="#383536"/>
    <path fill-rule="evenodd" clip-rule="evenodd" d="M31.9821 25.6265C32.0852 25.6265 32.1688 25.7101 32.1688 25.8132C32.1688 25.9163 32.0852 26 31.9821 26H31.4317V25.9992C31.229 25.9992 31.0448 25.9162 30.9115 25.7828C30.7787 25.65 30.6962 25.4661 30.6959 25.2635H30.6952V24.7012H30.6959C30.696 24.4984 30.7788 24.3141 30.9123 24.1808C31.0452 24.0481 31.229 23.9655 31.4315 23.9654V23.9645H31.9821C32.0852 23.9645 32.1688 24.0482 32.1688 24.1513C32.1688 24.2544 32.0852 24.338 31.9821 24.338H31.4315V24.3373C31.3321 24.3373 31.2411 24.3786 31.1748 24.4448C31.1088 24.5108 31.068 24.6015 31.068 24.7012H31.0686V25.2635H31.068C31.068 25.363 31.1091 25.454 31.1755 25.5203C31.2413 25.5861 31.3321 25.6272 31.4317 25.6272V25.6265H31.9821Z" fill="#383536"/>
    <path fill-rule="evenodd" clip-rule="evenodd" d="M33.0623 24.3373V24.338H33.0616V24.3373C32.924 24.3373 32.7988 24.3915 32.7084 24.4784C32.6194 24.5637 32.5643 24.6806 32.5642 24.8081H32.565V25.1566H32.5642C32.5643 25.284 32.6194 25.4006 32.7081 25.4859C32.7988 25.5729 32.924 25.6272 33.0619 25.6272V25.6265H33.0626V25.6272C33.2003 25.6272 33.3254 25.5731 33.416 25.4859C33.5048 25.4007 33.5601 25.284 33.5601 25.1563H33.5594V24.808H33.5601C33.5599 24.6804 33.5048 24.5637 33.4161 24.4785C33.3254 24.3915 33.2002 24.3373 33.0623 24.3373ZM33.0616 23.9645H33.0623V23.9654C33.3004 23.9654 33.5172 24.0592 33.6743 24.21C33.8332 24.3629 33.9319 24.5744 33.932 24.808H33.9327V25.1563H33.932C33.9319 25.39 33.8332 25.6017 33.6741 25.7545C33.5172 25.9053 33.3005 25.999 33.0626 25.9992V26H33.0619V25.9992C32.8238 25.9992 32.6071 25.9053 32.4499 25.7544C32.2912 25.6017 32.1924 25.3901 32.1922 25.1566H32.1915V24.8081H32.1922C32.1924 24.5746 32.2912 24.3628 32.4502 24.21C32.6072 24.0592 32.8238 23.9655 33.0616 23.9654V23.9645Z" fill="#383536"/>
    <path fill-rule="evenodd" clip-rule="evenodd" d="M25.1944 24.338V25.6265H25.916V25.6272C25.9801 25.6272 26.0388 25.6006 26.0818 25.5575C26.1244 25.5151 26.1508 25.4564 26.1508 25.3922H26.1502V25.3913H26.1508C26.1508 25.3311 26.1272 25.2753 26.0884 25.2333L26.0812 25.2264C26.0382 25.1832 25.9795 25.1566 25.9159 25.1566V25.1573H25.6672C25.5643 25.1573 25.4806 25.0734 25.4806 24.9706C25.4806 24.8678 25.5643 24.7838 25.6672 24.7838H25.7522C25.8062 24.7797 25.8555 24.7553 25.8928 24.7184L25.8931 24.7186L25.8933 24.7184C25.9337 24.6778 25.959 24.6221 25.959 24.5611H25.9584V24.5604H25.959C25.959 24.4997 25.9336 24.4439 25.8928 24.403C25.8524 24.3626 25.7966 24.3373 25.7357 24.3373V24.338H25.1944ZM24.821 25.8132V24.1593C24.821 24.1329 24.8265 24.1078 24.8363 24.0851C24.8463 24.0608 24.8612 24.0389 24.8796 24.0209L24.8819 24.0188L24.8818 24.0187C24.9134 23.9885 24.9555 23.9682 25.0044 23.9654C25.0081 23.9651 25.0118 23.9648 25.0154 23.965V23.9645H25.7357V23.9654C25.8998 23.9654 26.0489 24.0324 26.1567 24.1403C26.2642 24.2478 26.3309 24.3964 26.331 24.5604H26.3318V24.5611H26.331C26.331 24.6774 26.2972 24.786 26.2393 24.8778C26.2777 24.9021 26.3133 24.9304 26.3453 24.9623C26.3493 24.9663 26.353 24.9706 26.3567 24.9748C26.4594 25.0833 26.5228 25.2301 26.5229 25.3913H26.5236V25.3922H26.5229C26.5229 25.5595 26.4544 25.7115 26.3443 25.8216C26.2349 25.931 26.0833 25.999 25.916 25.9992V26H25.0077C24.9046 26 24.821 25.9163 24.821 25.8132Z" fill="#383536"/>
</svg>
