<svg width="52" height="32" viewBox="0 0 52 32" fill="none" xmlns="http://www.w3.org/2000/svg">
    <rect width="52" height="32" rx="2" fill="white"/>
    <path fill-rule="evenodd" clip-rule="evenodd" d="M14.7475 17.1908L17.8015 17.1866L17.6898 17.8815L15.1361 20.3198L17.2788 20.3155L17.1543 21.066L13.9987 21.0665L14.1305 20.2926L16.5785 17.9483L14.6256 17.9482L14.7475 17.1908Z" fill="#BF333A"/>
    <path fill-rule="evenodd" clip-rule="evenodd" d="M10.7668 16.9507C10.766 16.9596 10.6931 17.3918 10.5945 17.903C10.5568 18.0986 10.4074 18.2036 10.235 18.24C9.95049 18.3001 9.64424 18.2891 9.64424 18.2891L8.29694 18.2857L8.59275 16.5001L9.81356 16.5035C9.81356 16.5035 9.89617 16.5018 10.0115 16.5036C10.1427 16.5056 10.3161 16.5122 10.4586 16.531C10.5807 16.547 10.68 16.5721 10.7108 16.6109C10.7513 16.6621 10.7681 16.7274 10.7737 16.7871C10.7817 16.8721 10.7673 16.9456 10.7668 16.9507ZM11.4087 16.0023C11.3418 15.9317 11.2474 15.8772 11.1407 15.8351C11.03 15.7915 10.9061 15.7613 10.7861 15.7404C10.6331 15.7138 10.4863 15.7023 10.3807 15.6974C10.2836 15.6928 10.2214 15.6939 10.2214 15.6939L8.88636 15.6937L7.89289 15.6935L7 21.0663L7.83134 21.0672L8.15995 19.0756L9.77179 19.0826C9.77179 19.0826 10.3994 19.1072 10.845 18.8715C11.2905 18.6356 11.4085 18.0993 11.4085 18.0993C11.4085 18.0993 11.4575 17.9003 11.4975 17.6573C11.5415 17.3905 11.5865 17.0701 11.6099 16.8995C11.6201 16.8247 11.6262 16.7787 11.6262 16.7787C11.6262 16.7787 11.637 16.7233 11.6381 16.6376C11.6395 16.5176 11.6217 16.338 11.5283 16.1669C11.4974 16.1103 11.4582 16.0546 11.4087 16.0023Z" fill="#BF333A"/>
    <path fill-rule="evenodd" clip-rule="evenodd" d="M21.9404 15.6927L22.74 15.692L21.8441 21.0675L21.0425 21.0662L21.9404 15.6927Z" fill="#BF333A"/>
    <path fill-rule="evenodd" clip-rule="evenodd" d="M26.2122 17.19L26.9791 17.1893L27.2501 19.9167L28.4298 17.1844L29.3765 17.187L29.6562 19.928L30.8361 17.1895L31.6317 17.1888L29.9408 21.0642L28.996 21.0643L28.7238 18.3506L27.5302 21.0644L26.6014 21.067L26.2122 17.19Z" fill="#BF333A"/>
    <path fill-rule="evenodd" clip-rule="evenodd" d="M20.2889 18.6356L18.5029 18.6337L18.5739 18.3502C18.5739 18.3502 18.6359 18.1285 18.7598 18.0338C18.8838 17.9392 19.0421 17.9231 19.1912 17.9087C19.3405 17.8941 19.7354 17.8663 20.0578 17.9328C20.1648 17.9547 20.2666 18.0149 20.2931 18.1041C20.3556 18.3145 20.2889 18.6356 20.2889 18.6356ZM20.4626 17.2226C20.2385 17.1496 19.8492 17.1351 19.5207 17.1392C19.2023 17.1431 19.0563 17.158 18.9375 17.1836C18.9375 17.1836 18.371 17.2648 18.0496 17.6631C17.7282 18.0613 17.6323 18.9328 17.6323 18.9328C17.6323 18.9328 17.4415 19.8958 17.4973 20.2167C17.553 20.5376 17.6531 20.835 18.0167 20.9746C18.3804 21.1142 18.6889 21.108 18.6889 21.108C18.6889 21.108 19.337 21.1589 19.8253 21.0434C20.3137 20.9281 20.5711 20.5843 20.5711 20.5843C20.5711 20.5843 20.6857 20.4365 20.7683 20.2598C20.851 20.0832 20.8752 19.9606 20.8788 19.9456L20.9301 19.7375L20.0998 19.7386C20.0998 19.7386 20.0541 20.2865 19.6064 20.337C19.1589 20.3875 18.9187 20.3684 18.8322 20.3652C18.7469 20.362 18.266 20.3818 18.305 19.9809C18.3052 19.9755 18.3055 19.9676 18.3061 19.9564C18.3284 19.4991 18.3792 19.3806 18.3792 19.3806L20.9853 19.3732L21.0965 18.7296C21.2231 17.9973 21.1302 17.4403 20.4626 17.2226Z" fill="#BF333A"/>
    <path fill-rule="evenodd" clip-rule="evenodd" d="M18.3376 19.9628C18.3345 19.979 18.3319 19.9951 18.3297 20.0109C18.3253 20.0914 18.3386 19.9583 18.3376 19.9628Z" fill="#BF333A"/>
    <path fill-rule="evenodd" clip-rule="evenodd" d="M23.2539 19.9637C23.2508 19.98 23.2482 19.996 23.2459 20.0118C23.2416 20.0924 23.2549 19.9591 23.2539 19.9637Z" fill="#BF333A"/>
    <path fill-rule="evenodd" clip-rule="evenodd" d="M25.1983 18.6345L23.4124 18.6327L23.4834 18.3491C23.4834 18.3491 23.5455 18.1274 23.6693 18.0328C23.7932 17.9382 23.9515 17.922 24.1008 17.9076C24.25 17.8932 24.6449 17.8653 24.9673 17.9318C25.0743 17.9537 25.176 18.0139 25.2026 18.1031C25.2652 18.3135 25.1983 18.6345 25.1983 18.6345ZM25.3791 17.2235C25.1548 17.1504 24.7656 17.136 24.4371 17.1401C24.1187 17.144 23.9727 17.1589 23.8538 17.1845C23.8538 17.1845 23.2874 17.2658 22.966 17.664C22.6445 18.0623 22.5486 18.9337 22.5486 18.9337C22.5486 18.9337 22.3578 19.8968 22.4137 20.2177C22.4695 20.5386 22.5694 20.8358 22.9332 20.9756C23.2968 21.1152 23.6053 21.109 23.6053 21.109C23.6053 21.109 24.2535 21.1598 24.7417 21.0444C25.23 20.929 25.4875 20.5852 25.4875 20.5852C25.4875 20.5852 25.602 20.4373 25.6846 20.2608C25.7673 20.0842 25.7916 19.9615 25.7953 19.9464L25.8465 19.7384L25.0162 19.7394C25.0162 19.7394 24.9704 20.2874 24.5228 20.3378C24.0753 20.3884 23.8351 20.3694 23.7486 20.3662C23.6633 20.363 23.1824 20.3828 23.2213 19.9819C23.2216 19.9765 23.2219 19.9685 23.2225 19.9572C23.2447 19.5 23.2955 19.3815 23.2955 19.3815L25.9017 19.3742L26.0129 18.7305C26.1396 17.9982 26.0466 17.4413 25.3791 17.2235Z" fill="#BF333A"/>
    <path fill-rule="evenodd" clip-rule="evenodd" d="M32.5541 17.1903L33.0669 20.0236L34.5182 17.1874L35.3344 17.1943L33.2435 21.2455C33.2435 21.2455 32.8653 21.9785 32.6305 22.1645C32.3958 22.3507 32.2526 22.4339 32.0605 22.4529C31.8686 22.472 31.7915 22.4854 31.6074 22.4529L31.4128 22.4187L31.5346 21.6954C31.5346 21.6954 31.8579 21.7562 32.0503 21.6802C32.2428 21.6041 32.3986 21.2762 32.3986 21.2762L32.4956 21.1122L31.74 17.1892L32.5541 17.1903Z" fill="#BF333A"/>
    <path fill-rule="evenodd" clip-rule="evenodd" d="M35.6288 17.5755L36.4704 17.5766L36.5204 17.2502C36.5204 17.2502 36.6104 16.6612 36.8109 16.5475C36.8751 16.511 36.9781 16.4763 37.0972 16.4556C37.317 16.4175 37.5977 16.413 37.8247 16.4212C38.1749 16.4339 38.3058 16.437 38.6619 16.4774C39.0181 16.518 38.9271 16.8617 38.9271 16.8617L38.8574 17.3743C38.8574 17.3743 38.8272 17.6039 38.745 17.7473C38.6722 17.8742 38.4741 17.9595 38.3593 17.997C38.0821 18.0874 37.1337 18.3284 37.1337 18.3284L36.3873 18.5436C36.3873 18.5436 35.9294 18.6764 35.6721 18.9603C35.4148 19.2444 35.3137 19.5673 35.2786 19.736C35.2435 19.9045 35.0465 21.0655 35.0465 21.0655L39.0712 21.0672L39.2055 20.2626L36.0221 20.2662L36.0795 19.9384C36.0795 19.9384 36.1164 19.6003 36.2532 19.4901C36.2963 19.4552 36.3178 19.409 36.5719 19.3184C36.7236 19.2643 37.243 19.126 37.243 19.126L38.444 18.7984C38.444 18.7984 39.0993 18.6296 39.3575 18.2722C39.6156 17.9149 39.7149 17.2298 39.7149 17.2298C39.7149 17.2298 39.7842 16.5648 39.7313 16.3563C39.6786 16.1478 39.4813 15.8974 39.242 15.7907C39.0027 15.684 38.7518 15.6215 38.0271 15.6315C37.3023 15.6415 36.9446 15.6753 36.5778 15.8102C36.2108 15.945 35.9989 16.1911 35.864 16.5379C35.715 16.8654 35.6288 17.5755 35.6288 17.5755Z" fill="#ADACA8"/>
    <path fill-rule="evenodd" clip-rule="evenodd" d="M42.3742 19.0717L40.6147 19.069L42.7564 16.7874L42.3742 19.0717ZM43.2057 19.071L43.7694 15.691L42.7708 15.6904L39.6589 19.0324L39.5176 19.8787L42.2391 19.8784L42.0399 21.0659L42.8747 21.067L43.0718 19.8785L43.8428 19.8801L43.9822 19.0699L43.2057 19.071Z" fill="#ADACA8"/>
    <path fill-rule="evenodd" clip-rule="evenodd" d="M13.173 16.134H15.7353C15.7353 16.134 16.3101 15.6695 16.7175 15.3717C17.1248 15.0738 17.8663 14.6034 17.8663 14.6034L16.419 13.9261C16.419 13.9261 15.1959 14.6837 14.6766 15.0412C14.1716 15.3705 13.173 16.134 13.173 16.134Z" fill="#ADACA8"/>
    <path fill-rule="evenodd" clip-rule="evenodd" d="M18.6815 14.1245L17.4929 13.3242C17.4929 13.3242 18.5687 12.7132 19.9985 12.143C21.4283 11.5727 22.1908 11.3355 22.1908 11.3355L22.4322 12.469C22.4322 12.469 21.0556 12.9293 20.2668 13.3021C19.4521 13.6495 18.6815 14.1245 18.6815 14.1245Z" fill="#ADACA8"/>
    <path fill-rule="evenodd" clip-rule="evenodd" d="M23.3113 12.2203L23.1052 11.0587C23.1052 11.0587 24.5724 10.6686 25.9168 10.4184C27.2611 10.1682 29.0444 10.05 29.0444 10.05L28.4543 11.8443C28.4543 11.8443 26.8859 11.6302 25.4146 11.8301C24.2675 11.9667 23.3113 12.2203 23.3113 12.2203Z" fill="#ADACA8"/>
    <path fill-rule="evenodd" clip-rule="evenodd" d="M29.3851 11.9958L30.3777 10.0022C30.3777 10.0022 32.5506 9.95994 34.424 10.2491C36.2975 10.5384 38.0113 10.984 37.974 11.0035L33.2222 13.4886C33.2222 13.4886 32.1126 12.7855 30.7337 12.3542C29.9528 12.1264 29.3851 11.9958 29.3851 11.9958Z" fill="#ADACA8"/>
    <path fill-rule="evenodd" clip-rule="evenodd" d="M34.0741 14.0308L35.119 14.8225H43.7012C43.7012 14.8225 43.6836 14.5447 43.455 14.1511C43.312 13.9045 43.0529 13.6438 42.7812 13.3729C42.6825 13.2744 42.2866 12.966 41.9913 12.7745C41.2335 12.2834 40.8104 12.0935 40.0245 11.7354L34.0741 14.0308Z" fill="#ADACA8"/>
    <path fill-rule="evenodd" clip-rule="evenodd" d="M13.7284 17.1866C13.4063 17.1866 13.102 17.3137 12.842 17.4561L12.8876 17.1866H12.0339L11.3503 21.0461H12.2046L12.5834 18.9079C12.6623 18.474 12.9851 17.9384 13.6187 17.9384L14.0604 17.9367L14.1932 17.1866H13.7284Z" fill="#BF333A"/>
</svg>
