<svg width="52" height="32" viewBox="0 0 52 32" fill="none" xmlns="http://www.w3.org/2000/svg">
    <rect width="52" height="32" rx="2" fill="white"/>
    <path d="M14.3165 4H23.8875C25.2228 4 26.0562 5.09017 25.755 6.43011L21.2963 25.5722C20.9812 26.9098 19.6436 28 18.306 28H8.73491C7.39963 28 6.56625 26.9098 6.87906 25.5722L11.3401 6.43011C11.6412 5.09017 12.9789 4 14.3165 4Z" fill="#E31837"/>
    <path d="M23.0961 4H34.1145C35.4521 4 34.8499 5.09017 34.5347 6.43011L30.076 25.5722C29.7632 26.9098 29.8612 28 28.5213 28H17.5029C16.163 28 15.3343 26.9098 15.6494 25.5722L20.1081 6.43011C20.4232 5.09017 21.7585 4 23.0961 4Z" fill="#00447C"/>
    <path d="M33.6734 4H43.2444C44.582 4 45.4154 5.09017 45.112 6.43011L40.6532 25.5722C40.3381 26.9098 39.0005 28 37.6605 28H28.0895C26.7495 28 25.9208 26.9098 26.222 25.5722L30.6807 6.43011C30.9982 5.09017 32.3334 4 33.6734 4Z" fill="#007B85"/>
    <path fill-rule="evenodd" clip-rule="evenodd" d="M32.0743 22.0076H32.9778L33.2369 21.1392H32.3381L32.0743 22.0076ZM32.7956 19.6101L32.4805 20.6373C32.6503 20.5481 32.8257 20.4701 33.0057 20.4038C33.1925 20.3618 33.4726 20.3245 33.4726 20.3245L33.692 19.6055H32.7863M33.2369 18.1301L32.9474 19.1223C33.1159 19.0443 33.289 18.9765 33.4656 18.9192C33.6192 18.8848 33.7754 18.863 33.9325 18.8538L34.1496 18.1348H33.2485M35.2444 18.1348L34.0772 21.9982H34.3923L34.1589 22.7966H33.8344L33.7597 23.0301H32.6485L32.7256 22.7966H30.4682L30.7016 22.0566H30.9351L32.1186 18.1348L32.3521 17.3434H33.4842L33.3675 17.7426C33.5473 17.6154 33.7458 17.517 33.9558 17.4508C34.2406 17.3761 35.8817 17.3481 35.8817 17.3481L35.6482 18.1348H35.2584" fill="white"/>
    <path d="M35.7486 17.3481H36.9578L36.9695 17.7987C36.9695 17.8757 37.0278 17.9107 37.1702 17.9107H37.4154L37.1819 18.6554H36.526C35.961 18.6951 35.7463 18.4523 35.7603 18.1885L35.7486 17.3481Z" fill="white"/>
    <path d="M35.9027 20.8777H34.7495L34.948 20.2148H36.2669L36.4536 19.6102H35.1511L35.3845 18.8632H39.0075L38.774 19.6102H37.5602L37.3687 20.2148H38.5873L38.3865 20.8777H37.0699L36.8365 21.1579H37.3687L37.4995 21.9913C37.5029 22.0509 37.5172 22.1094 37.5415 22.164C37.6313 22.1989 37.7277 22.2141 37.8239 22.2084H37.985L37.7376 23.0207H37.3267H37.0372C36.9325 22.9988 36.8333 22.9559 36.7454 22.8947C36.6319 22.8414 36.5517 22.7359 36.5307 22.6122L36.4023 21.7788L35.8023 22.6005C35.61 22.8996 35.2754 23.0766 34.9199 23.0674H34.0842L34.3037 22.3414H34.6235C34.7057 22.3387 34.786 22.3154 34.8569 22.2737C34.9308 22.2458 34.9932 22.1941 35.0343 22.1267L35.9027 20.8777Z" fill="white"/>
    <path d="M23.2759 19.0639H26.3317L26.0982 19.7922H24.8843L24.6929 20.4132H25.9442L25.7107 21.1649H24.4665L24.163 22.1757C24.1257 22.2877 24.4595 22.3017 24.5809 22.3017L25.2042 22.2083L24.952 23.0487H23.5514C23.4426 23.0471 23.3344 23.0322 23.2292 23.0044C23.1354 22.9841 23.0547 22.9246 23.0075 22.841C22.9211 22.7559 22.8911 22.6288 22.9304 22.5142L23.3343 21.1789H22.634L22.8674 20.4132H23.5677L23.7522 19.7922H23.0518L23.2759 19.0639Z" fill="white"/>
    <path d="M25.3302 17.7543H26.5837L26.3503 18.5153H24.6438L24.4594 18.6764C24.3801 18.7535 24.352 18.7231 24.247 18.7768C24.074 18.8703 23.881 18.9208 23.6844 18.9239H23.1428L23.3623 18.1909H23.528C23.6242 18.1994 23.721 18.185 23.8105 18.1488C23.8875 18.0853 23.9497 18.0056 23.9925 17.9154L24.31 17.3388H25.5543L25.3302 17.7543Z" fill="white"/>
    <path fill-rule="evenodd" clip-rule="evenodd" d="M27.7323 19.0079C28.0018 18.7904 28.3239 18.6479 28.6661 18.5947C28.7991 18.569 29.6278 18.5784 29.6278 18.5784L29.7562 18.1582H27.9891L27.7323 19.0079ZM29.3874 19.3254H27.6389L27.5315 19.6779H29.0442C29.1219 19.672 29.2 19.672 29.2777 19.6779L29.3897 19.3301M27.1114 17.3481H28.1782L28.0218 17.8851C28.1992 17.7422 28.3918 17.6193 28.596 17.5186C28.8471 17.4455 29.103 17.3901 29.3617 17.3528H31.0892L30.5009 19.3114C30.4411 19.5426 30.3441 19.7625 30.2138 19.9627C30.143 20.0773 30.0421 20.1702 29.922 20.2311C29.7994 20.3028 29.6636 20.3488 29.5228 20.3665C29.4084 20.3665 29.2333 20.3782 28.9906 20.3805H27.3448L26.8779 21.9306C26.8336 22.0846 26.8126 22.164 26.8406 22.199C26.8785 22.2481 26.9373 22.2766 26.9993 22.2761L27.7253 22.2084L27.4732 23.0488H26.6445C26.383 23.0488 26.1916 23.0488 26.0586 23.0324C25.9387 23.0408 25.8187 23.0174 25.7107 22.9647C25.636 22.897 25.5193 22.8083 25.5216 22.7173C25.5438 22.5767 25.5757 22.4378 25.6174 22.3017L27.1114 17.3481Z" fill="white"/>
    <path d="M30.2325 20.5089L30.1321 20.9758C30.1097 21.1109 30.0432 21.2349 29.943 21.3283C29.7882 21.473 29.5801 21.5466 29.3688 21.5314L28.7782 21.5571V22.0893C28.7782 22.2387 28.8108 22.2224 28.8342 22.248C28.8562 22.2689 28.8825 22.2849 28.9112 22.2947H29.1003L29.6652 22.262L29.4318 23.0394H28.7782C28.3113 23.0394 27.9868 23.0394 27.8771 22.9414C27.7674 22.8433 27.7534 22.785 27.7534 22.6356L27.7954 20.5626H28.8319L28.8178 20.9851H29.0653C29.1268 20.9914 29.189 20.9809 29.245 20.9548C29.2799 20.928 29.3046 20.8901 29.3151 20.8474L29.4178 20.5159L30.2325 20.5089Z" fill="white"/>
    <path d="M15.4393 10.1138C15.4043 10.2819 14.739 13.3493 14.739 13.3516C14.5966 13.9703 14.4939 14.4138 14.139 14.6986C13.9426 14.8619 13.6942 14.9497 13.4387 14.946C13.2563 14.9692 13.0727 14.9142 12.933 14.7945C12.7934 14.6749 12.7109 14.5019 12.7057 14.3181V14.1757C12.7057 14.1757 12.8388 13.3446 12.8388 13.34C12.8388 13.3353 13.5391 10.5387 13.6628 10.1769V10.1348C12.3042 10.1348 12.0638 10.1348 12.0474 10.1138C12.0474 10.1442 12.0054 10.3169 12.0054 10.3169L11.2934 13.466L11.2374 13.7322L11.1183 14.6052C11.1111 14.8311 11.1635 15.0549 11.2701 15.2542C11.5945 15.8214 12.5213 15.9078 13.0442 15.9078C13.648 15.927 14.2462 15.7869 14.7787 15.5016C15.521 15.0628 15.7124 14.3788 15.8899 13.7695L15.9692 13.4567C15.9692 13.4567 16.6882 10.555 16.8096 10.1885C16.8113 10.1737 16.8161 10.1594 16.8236 10.1465C16.362 10.1651 15.8996 10.1542 15.4393 10.1138V10.1138Z" fill="white"/>
    <path d="M19.4242 15.8775C18.9433 15.8775 18.7729 15.8775 18.2103 15.8985L18.1893 15.8565C18.2383 15.6417 18.2896 15.4293 18.3387 15.2145L18.4087 14.9204C18.5114 14.4535 18.6141 13.9352 18.6258 13.7718C18.6258 13.6761 18.6702 13.4333 18.3924 13.4333C18.2643 13.4455 18.1402 13.4844 18.0282 13.5477C17.9605 13.7812 17.8251 14.4815 17.7597 14.7803C17.6197 15.4339 17.6103 15.511 17.5473 15.8331L17.5076 15.8775C17.0127 15.8775 16.84 15.8775 16.268 15.8985L16.2424 15.8495C16.3381 15.4619 16.4315 15.0698 16.5225 14.6823C16.685 14.026 16.8059 13.3602 16.8843 12.6887L16.931 12.6583C17.4889 12.579 17.6313 12.5626 18.2266 12.4412L18.278 12.4972L18.1846 12.8334C18.2873 12.7704 18.3854 12.7097 18.4881 12.6583C18.7306 12.5434 18.9948 12.4814 19.2631 12.4762C19.5463 12.4422 19.819 12.5951 19.9377 12.8544C20.0521 13.1275 19.9751 13.4637 19.8257 14.122L19.7486 14.4605C19.5946 15.1935 19.5689 15.3289 19.4825 15.8331L19.4242 15.8775Z" fill="white"/>
    <path d="M21.3828 15.8774C21.091 15.8774 20.9042 15.8774 20.7222 15.8774C20.5401 15.8774 20.3627 15.8891 20.0942 15.9008L20.0779 15.8774L20.0615 15.8517C20.1035 15.6937 20.1534 15.5379 20.2109 15.3849C20.2669 15.225 20.3106 15.0611 20.3417 14.8946C20.4257 14.5258 20.4794 14.269 20.5121 14.0426C20.5447 13.8161 20.5728 13.6387 20.6031 13.4216L20.6241 13.4053L20.6475 13.3843L21.3081 13.2886C21.4972 13.2629 21.6886 13.2255 21.9874 13.1672V13.1929V13.2209L21.8193 13.9072C21.768 14.1406 21.7119 14.3741 21.6606 14.6075C21.5532 15.0907 21.5089 15.2728 21.4832 15.4035C21.4575 15.5343 21.4505 15.595 21.4085 15.8447L21.3828 15.8681V15.8774Z" fill="white"/>
    <path fill-rule="evenodd" clip-rule="evenodd" d="M25.5801 12.9198C25.7458 13.1322 25.8765 13.4777 25.7084 14.2177H25.7108C25.6248 14.6305 25.4433 15.0175 25.1809 15.3476C24.7759 15.7562 24.2173 15.9749 23.6425 15.9498C23.3769 15.955 23.1127 15.9115 22.8628 15.8214C22.1018 15.518 22.2325 14.7033 22.3352 14.2504C22.4175 13.7774 22.6423 13.3408 22.9795 12.9991C23.3824 12.6571 23.8987 12.478 24.4269 12.4972C24.8797 12.4972 25.3303 12.6 25.5801 12.9198ZM24.1654 14.9507C24.3023 14.7061 24.397 14.4401 24.4455 14.164C24.5809 13.6014 24.5575 13.2513 24.2681 13.2513C23.8852 13.2513 23.7358 13.7228 23.6098 14.2831C23.5596 14.4611 23.5306 14.6445 23.5234 14.8293C23.5257 15.1841 23.7662 15.1841 23.8059 15.1841C23.9564 15.1692 24.0904 15.0822 24.1654 14.9507Z" fill="white"/>
    <path d="M37.4855 15.9265C36.9019 15.9265 36.7361 15.9265 36.1992 15.9451L36.1642 15.9008C36.3113 15.3475 36.456 14.7966 36.5867 14.2387C36.7036 13.7589 36.7909 13.2725 36.8482 12.782L36.8925 12.7447C37.4691 12.663 37.6302 12.6396 38.2325 12.5299L38.2488 12.5789C38.1391 13.0458 38.0317 13.487 37.9243 13.9469C37.7026 14.9017 37.6232 15.3872 37.5368 15.8868L37.4855 15.9265Z" fill="white"/>
    <path fill-rule="evenodd" clip-rule="evenodd" d="M37.4444 13.9795C37.6506 13.9086 37.8632 13.8354 37.7609 14.283V14.276C37.7421 14.3594 37.7219 14.3388 37.6856 14.3019C37.6275 14.2427 37.528 14.1415 37.3267 14.3601C37.2178 14.4797 37.0994 14.6428 36.9709 14.8198C36.5979 15.3335 36.1396 15.9646 35.5806 15.9942C35.3515 16.0079 35.1225 15.9663 34.9129 15.8728C34.1566 15.5833 34.285 14.7663 34.39 14.3204C34.4726 13.8505 34.6956 13.4167 35.0296 13.0762C35.5479 12.6046 36.1525 12.4739 36.4093 12.5743C36.8884 12.7569 36.9708 13.204 37.0404 13.5817C37.0678 13.7303 37.0932 13.8681 37.1399 13.9749C37.182 14.0699 37.3118 14.0252 37.4444 13.9795ZM36.3253 15.0137C36.4599 14.7682 36.5567 14.5037 36.6124 14.2293C36.7408 13.6644 36.6124 13.3376 36.3136 13.3353C35.9308 13.3353 35.7837 13.8022 35.6553 14.3507C35.6088 14.5301 35.5822 14.7141 35.576 14.8993C35.5853 15.2471 35.8211 15.2471 35.8584 15.2471C36.0393 15.2359 36.2078 15.1517 36.3253 15.0137Z" fill="white"/>
    <path d="M28.9975 15.8775C28.5143 15.8775 28.3509 15.8775 27.7859 15.8985L27.7649 15.8565C27.814 15.6417 27.8676 15.4293 27.919 15.2145L27.9844 14.9204C28.0759 14.5414 28.1483 14.1581 28.2015 13.7718C28.2015 13.6761 28.2458 13.4333 27.968 13.4333C27.8399 13.4451 27.7157 13.4841 27.6039 13.5477C27.5385 13.7812 27.3984 14.4815 27.3307 14.7803C27.1977 15.4339 27.186 15.511 27.1253 15.8331L27.0833 15.8775C26.5884 15.8775 26.418 15.8775 25.8461 15.8985L25.8204 15.8495C25.9137 15.4619 26.0095 15.0698 26.1005 14.6823C26.2607 14.0255 26.3815 13.3598 26.4623 12.6887L26.5067 12.6583C27.0623 12.579 27.207 12.5626 27.8023 12.4412L27.849 12.4972L27.7626 12.8334C27.8606 12.7704 27.9634 12.7097 28.0637 12.6583C28.3062 12.5432 28.5704 12.4812 28.8388 12.4762C29.1223 12.4434 29.395 12.5958 29.5157 12.8544C29.6278 13.1275 29.5507 13.4637 29.399 14.122L29.3243 14.4605C29.1656 15.1935 29.1422 15.3289 29.0559 15.8331L28.9975 15.8775Z" fill="white"/>
    <path fill-rule="evenodd" clip-rule="evenodd" d="M32.7817 10.1091H33.1809C33.9862 10.1138 34.6912 10.1232 35.0367 10.6134C35.1706 10.8086 35.237 11.0422 35.2258 11.2787C35.2242 11.4541 35.2023 11.6288 35.1605 11.7993C35.039 12.3933 34.7075 12.9238 34.2267 13.2933C33.531 13.8045 32.6463 13.8045 31.8619 13.8045H31.7802C31.7351 13.8371 31.697 13.8783 31.6682 13.9259C31.6634 13.9403 31.614 14.1467 31.5669 14.3435C31.5225 14.5288 31.4802 14.7056 31.4791 14.7056C31.4778 14.7056 31.4158 15.006 31.3532 15.3092C31.3 15.5667 31.2465 15.8261 31.2293 15.9055C31.0729 15.8938 30.6994 15.8938 29.7913 15.9055L30.7321 12.0397L31.1056 10.3076C31.1056 10.3076 31.1336 10.1722 31.1476 10.0975C31.3227 10.1091 31.7382 10.1091 32.7817 10.1091ZM33.0478 12.7704C33.3845 12.5965 33.6247 12.28 33.7015 11.909H33.6851C33.7902 11.4888 33.6455 11.1666 33.3233 11.0406L32.4853 10.9705L32.3265 10.9542V11.0196V11.1083C32.3265 11.1036 31.9297 12.8287 31.9297 12.8287L31.9133 12.9151H32.1304C32.4433 12.9377 32.7571 12.8882 33.0478 12.7704Z" fill="white"/>
    <path d="M42.243 12.5252L42.1963 12.4716C41.6011 12.5906 41.496 12.6116 40.9474 12.684L40.9077 12.7237V12.7494C40.4992 13.6831 40.5109 13.4847 40.1817 14.2224C40.1817 14.1897 40.1817 14.1687 40.1817 14.1313L40.0977 12.5323L40.0463 12.4786C39.4231 12.5976 39.409 12.6186 38.8348 12.691L38.7904 12.7307C38.7893 12.7517 38.7893 12.7727 38.7904 12.7937C38.8482 13.0799 38.8903 13.369 38.9165 13.6598C38.9515 13.9446 38.9959 14.2294 39.0285 14.5118C39.0846 14.9787 39.1172 15.2121 39.1873 15.9311C38.7974 16.5708 38.7064 16.8135 38.3329 17.3761L38.3562 17.4298C38.9165 17.4088 39.0566 17.4088 39.4627 17.4088L39.5538 17.3061C39.8502 16.6315 42.243 12.5252 42.243 12.5252Z" fill="white"/>
    <path d="M21.9079 12.9198C22.2277 12.7003 22.2674 12.3945 21.999 12.2358C21.6476 12.0831 21.2419 12.1256 20.9298 12.3478C20.61 12.5649 20.575 12.8731 20.8458 13.0342C21.1954 13.185 21.5984 13.1415 21.9079 12.9198Z" fill="white"/>
    <path d="M39.4837 17.3644L39.0169 18.1651C38.8489 18.4794 38.5135 18.6671 38.1578 18.646L37.4155 18.6344L37.6326 17.913H37.7773C37.8361 17.9176 37.8951 17.9089 37.95 17.8873C37.9908 17.8702 38.0245 17.8397 38.0458 17.801L38.3212 17.3644L39.4837 17.3644Z" fill="white"/>
</svg>
