<svg width="52" height="32" viewBox="0 0 52 32" fill="none" xmlns="http://www.w3.org/2000/svg">
    <rect width="52" height="32" rx="2" fill="white"/>
    <path d="M25.3977 10.212L22.9149 21.8186H19.9126L22.3963 10.212H25.3977ZM38.0299 17.706L39.6102 13.3481L40.5197 17.706H38.0299ZM41.38 21.8186H44.1569L41.7329 10.212H39.1699C38.5935 10.212 38.1075 10.5475 37.8922 11.0635L33.3866 21.8186H36.5393L37.1654 20.0848H41.0175L41.38 21.8186ZM33.5434 18.029C33.5562 14.9658 29.3075 14.797 29.3367 13.4286C29.3458 13.0122 29.7424 12.5694 30.6102 12.4563C31.0405 12.3999 32.2258 12.3569 33.5703 12.9757L34.0976 10.5146C33.3752 10.2524 32.4457 10 31.2891 10C28.3214 10 26.2329 11.5777 26.2153 13.8367C26.1961 15.5076 27.706 16.4399 28.8435 16.9951C30.0137 17.5638 30.4063 17.9291 30.4019 18.4378C30.3936 19.2164 29.4686 19.5601 28.6041 19.5735C27.0951 19.5967 26.2193 19.1652 25.5212 18.8406L24.977 21.3833C25.6785 21.7052 26.9734 21.986 28.316 22C31.4704 22 33.5336 20.442 33.5434 18.029ZM21.1077 10.212L16.2431 21.8186H13.0693L10.6755 12.556C10.5301 11.9854 10.4038 11.7765 9.96185 11.5362C9.24025 11.1446 8.04842 10.7774 7 10.5493L7.07124 10.212H12.1802C12.8314 10.212 13.4167 10.6455 13.5646 11.3955L14.8289 18.1117L17.9536 10.212H21.1077Z" fill="#1434CB"/>
</svg>
